<?xml version="1.0" encoding="UTF-8"?>
<svg width="95px" height="95px" viewBox="0 0 95 95" version="1.1" xmlns="http://www.w3.org/2000/svg" xmlns:xlink="http://www.w3.org/1999/xlink">
    <!-- Generator: Sketch 52.6 (67491) - http://www.bohemiancoding.com/sketch -->
    <title>分组 4</title>
    <desc>Created with Sketch.</desc>
    <g id="移动营销客服端—app" stroke="none" stroke-width="1" fill="none" fill-rule="evenodd">
        <g id="聊天详情——图片-copy" transform="translate(-140.000000, -916.000000)">
            <g id="分组-4" transform="translate(140.000000, 916.000000)">
                <g id="分组-28">
                    <g id="分组-6">
                        <rect id="Base" stroke="#C0CCDA" stroke-width="0.8" fill="#F9FAFC" x="0.4" y="1.15356954" width="94.2" height="92.642623" rx="2"></rect>
                        <path d="M46.4444444,44.9629825 L46.4444444,34.9622932 C46.4444444,34.3814753 46.9129684,33.9106293 47.5,33.9106293 C48.0829672,33.9106293 48.5555556,34.3923201 48.5555556,34.9622932 L48.5555556,44.9629825 L59.1579369,44.9629825 C59.715043,44.9629825 60.1666667,45.4089599 60.1666667,45.9677419 C60.1666667,46.5226552 59.7162074,46.9725013 59.1579369,46.9725013 L48.5555556,46.9725013 L48.5555556,56.9731907 C48.5555556,57.5540086 48.0870316,58.0248546 47.5,58.0248546 C46.9170328,58.0248546 46.4444444,57.5431638 46.4444444,56.9731907 L46.4444444,46.9725013 L35.8420631,46.9725013 C35.284957,46.9725013 34.8333333,46.526524 34.8333333,45.9677419 C34.8333333,45.4128286 35.2837926,44.9629825 35.8420631,44.9629825 L46.4444444,44.9629825 Z" id="icon-add" fill="#C0CCDA"></path>
                    </g>
                </g>
            </g>
        </g>
    </g>
</svg>