<?xml version="1.0" encoding="UTF-8"?>
<svg width="40px" height="40px" viewBox="0 0 40 40" version="1.1" xmlns="http://www.w3.org/2000/svg" xmlns:xlink="http://www.w3.org/1999/xlink">
    <!-- Generator: Sketch 52.6 (67491) - http://www.bohemiancoding.com/sketch -->
    <title>默认头像</title>
    <desc>Created with Sketch.</desc>
    <g id="移动营销V3.3" stroke="none" stroke-width="1" fill="none" fill-rule="evenodd">
        <g id="pc客服版本首页" transform="translate(-476.000000, -293.000000)">
            <g id="分组-68" transform="translate(360.000000, 84.000000)">
                <g id="分组-48">
                    <g id="分组-50">
                        <g id="分组-49">
                            <g id="分组-43">
                                <g id="分组-42">
                                    <g id="分组-3" transform="translate(98.000000, 61.000000)">
                                        <g id="默认头像" transform="translate(18.000000, 148.000000)">
                                            <rect id="矩形" fill="#DBDDE7" x="0" y="0" width="40" height="40" rx="2"></rect>
                                            <path d="M22.5594374,30.4316244 L18.2513755,30.4316244 C14.2043672,30.4316244 11,30.4316244 11,28.3843231 L11,27.9582993 C11,24.0293314 14.2518594,20.8341405 18.2513755,20.8341405 L22.5594885,20.8341405 C26.5590046,20.8341405 29.810864,24.0293569 29.810864,27.9582993 L29.810864,28.3843231 C29.810864,30.4316244 26.4522367,30.4316244 22.5594885,30.4316244 L22.5594629,30.4316244 L22.5594374,30.4316244 Z M20.1977368,20.2897697 C17.0289504,20.2897697 14.4535861,17.7572711 14.4535861,14.6448977 C14.4535861,11.5324986 17.0289504,9 20.1977112,9 C23.3664977,9 25.9418364,11.5324986 25.9418364,14.6448721 C25.9418364,17.7572711 23.3664721,20.2897442 20.1977112,20.2897442 L20.1977368,20.2897697 Z" id="形状" fill="#FFFFFF" fill-rule="nonzero"></path>
                                        </g>
                                    </g>
                                </g>
                            </g>
                        </g>
                    </g>
                </g>
            </g>
        </g>
    </g>
</svg>