<?xml version="1.0" encoding="UTF-8"?>
<svg width="22px" height="20px" viewBox="0 0 22 20" version="1.1" xmlns="http://www.w3.org/2000/svg" xmlns:xlink="http://www.w3.org/1999/xlink">
    <!-- Generator: Sketch 52.6 (67491) - http://www.bohemiancoding.com/sketch -->
    <title>相机</title>
    <desc>Created with Sketch.</desc>
    <g id="移动营销客服端—app" stroke="none" stroke-width="1" fill="none" fill-rule="evenodd">
        <g id="聊天详情——图片-copy" transform="translate(-121.000000, -843.000000)" fill="#959CB6" fill-rule="nonzero">
            <g id="相机" transform="translate(121.000000, 843.000000)">
                <path d="M11.1753569,16.4235764 C14.0944002,16.4235764 16.4697001,13.9177734 16.4697001,10.8383528 C16.4697001,7.75893223 14.0944002,5.25312922 11.1753569,5.25312922 C8.2563136,5.25312922 5.88101367,7.75893223 5.88101367,10.8383528 C5.88101367,13.9177734 8.2563136,16.4235764 11.1753569,16.4235764 Z M11.1753569,6.40036433 C13.4934207,6.40036433 15.3822134,8.39293059 15.3822134,10.8383528 C15.3822134,13.283775 13.4934207,15.2763413 11.1753569,15.2763413 C8.8572931,15.2763413 6.96850038,13.283775 6.96850038,10.8383528 C6.96850038,8.39293059 8.8572931,6.40036433 11.1753569,6.40036433 Z M3.92067578,5.84184197 C3.92067578,5.40408121 3.57725892,5.04179643 3.16229689,5.04179643 C2.74733485,5.04179643 2.403918,5.40408121 2.403918,5.84184197 C2.403918,6.27960274 2.74733485,6.64188752 3.16229689,6.64188752 C3.59156796,6.64188752 3.92067578,6.27960274 3.92067578,5.84184197 Z M19.7321602,2.33975583 L16.1262832,2.33975583 L14.5665983,0.226427983 C14.4664351,0.0905711934 14.3090357,0 14.1373273,0 L7.58378892,0 C7.41208049,0 7.2546811,0.0905711934 7.14020881,0.226427983 L5.69499621,2.33975583 L1.77432043,2.33975583 C0.801305999,2.33975583 0,3.18508697 0,4.21156049 L0,17.3292883 C0,18.3557619 0.801305999,19.201093 1.77432043,19.201093 L15.9402658,19.201093 L15.9402658,18.0538579 L1.77432043,18.0538579 C1.38797646,18.0538579 1.08748671,17.7217635 1.08748671,17.3292883 L1.08748671,4.21156049 C1.08748671,3.80399012 1.4022855,3.48699095 1.77432043,3.48699095 L5.96686789,3.48699095 C6.13857631,3.48699095 6.29597571,3.39641975 6.41044799,3.26056296 L7.86996963,1.16233032 L13.8797646,1.16233032 L15.4394495,3.27565816 C15.5396128,3.41151495 15.6970122,3.50208614 15.8687206,3.50208614 L19.7321602,3.50208614 C20.1185042,3.50208614 20.4189939,3.83418052 20.4189939,4.22665569 L20.4189939,13.3441558 L21.5064807,13.3441558 L21.5064807,4.21156049 C21.5064807,3.16999177 20.7051747,2.33975583 19.7321602,2.33975583 Z M18.2010934,13.132823 L19.2885801,13.132823 L19.2885801,19.201093 L18.2010934,19.201093 L18.2010934,13.132823 Z M15.8690057,16.7276031 L15.8690057,15.580368 L21.621238,15.580368 L21.621238,16.7276031 L15.8690057,16.7276031 Z" id="形状"></path>
            </g>
        </g>
    </g>
</svg>