<?xml version="1.0" encoding="UTF-8"?>
<svg width="18px" height="18px" viewBox="0 0 18 18" version="1.1" xmlns="http://www.w3.org/2000/svg" xmlns:xlink="http://www.w3.org/1999/xlink">
    <!-- Generator: Sketch 52.6 (67491) - http://www.bohemiancoding.com/sketch -->
    <title>删  除</title>
    <desc>Created with Sketch.</desc>
    <g id="移动营销客服端—app" stroke="none" stroke-width="1" fill="none" fill-rule="evenodd">
        <g id="消息" transform="translate(-338.000000, -82.000000)" fill="#C3C6D6" fill-rule="nonzero">
            <g id="分组-2" transform="translate(0.000000, 64.000000)">
                <g id="删--除" transform="translate(338.000000, 18.000000)">
                    <path d="M8.9396736,0 C3.99351982,0 0,3.99351982 0,8.9396736 C0,13.8858274 3.99351982,17.8793472 8.9396736,17.8793472 C13.8858274,17.8793472 17.8793472,13.8858274 17.8793472,8.9396736 C17.8793472,3.99351982 13.8858274,0 8.9396736,0 M12.6950349,12.6950349 C12.4568764,12.9331934 12.0386324,12.9331934 11.8004739,12.6950349 L8.9396736,9.83421715 L6.07885583,12.6950349 C5.84069733,12.9331934 5.42247077,12.9331934 5.18431228,12.6950349 C4.94615378,12.4568764 4.94615378,12.0386499 5.18431228,11.8004914 L8.04511259,8.9396736 L5.18431228,6.07885583 C4.94615378,5.84069733 4.94615378,5.42247077 5.18431228,5.18431228 C5.42247077,4.94615378 5.84069733,4.94615378 6.07885583,5.18431228 L8.9396736,8.04513005 L11.8004739,5.18431228 C12.0386324,4.94615378 12.4568764,4.94615378 12.6950349,5.18431228 C12.9331934,5.42247077 12.9331934,5.84069733 12.6950349,6.07885583 L9.83421715,8.9396736 L12.6950349,11.8004914 C12.9941822,12.0386499 12.9941822,12.453978 12.6950349,12.6950349" id="形状"></path>
                </g>
            </g>
        </g>
    </g>
</svg>