<?xml version="1.0" encoding="UTF-8"?>
<svg width="22px" height="22px" viewBox="0 0 22 22" version="1.1" xmlns="http://www.w3.org/2000/svg" xmlns:xlink="http://www.w3.org/1999/xlink">
    <!-- Generator: Sketch 52.6 (67491) - http://www.bohemiancoding.com/sketch -->
    <title>企业标识码icon</title>
    <desc>Created with Sketch.</desc>
    <defs>
        <path d="M14.3473804,6.64749965 C14.3473804,7.11331747 14.7370704,7.49031957 15.2144448,7.49031957 C15.6922232,7.49031957 16.0814284,7.11331747 16.0814284,6.64749965 C16.0814284,6.18168184 15.6926273,5.80379077 15.2144448,5.80379077 C14.7370704,5.80379077 14.3473804,6.18168184 14.3473804,6.64749965 L14.3473804,6.64749965 Z M16.55258,8.22205556 L5.47389042,8.22205556 C4.81217698,8.22205556 4.27621173,7.77840276 4.27621173,7.16842804 L4.27621173,5.94395857 C4.27621173,5.33237502 4.81217698,4.88872222 5.47389042,4.88872222 L16.5529841,4.88872222 C17.2146975,4.88872222 17.7510669,5.33229841 17.7510669,5.94395857 L17.7510669,7.16881109 C17.7506628,7.77840276 17.2146975,8.22205556 16.55258,8.22205556 L16.55258,8.22205556 Z M15.2144448,10.1559224 C14.7370704,10.1559224 14.3473804,10.5338135 14.3473804,11.0009243 C14.3473804,11.4658532 14.7370704,11.8450373 15.2144448,11.8450373 C15.6922232,11.8450373 16.0814284,11.4658532 16.0814284,11.0009243 C16.0819133,10.5342176 15.6926273,10.1559224 15.2144448,10.1559224 L15.2144448,10.1559224 Z M16.55258,12.6666667 L5.47389042,12.6666667 C4.81217698,12.6666667 4.27621173,12.2247573 4.27621173,11.6134903 L4.27621173,10.3865097 C4.27621173,9.77562599 4.81217698,9.33333333 5.47389042,9.33333333 L16.5529841,9.33333333 C17.2146975,9.33333333 17.7510669,9.77524265 17.7510669,10.3865097 L17.7510669,11.6134903 C17.7506628,12.2247573 17.2146975,12.6666667 16.55258,12.6666667 L16.55258,12.6666667 Z M15.2144448,14.5106401 C14.7370704,14.5106401 14.3473804,14.8872382 14.3473804,15.3534601 C14.3473804,15.8196819 14.7370704,16.1971689 15.2144448,16.1971689 C15.6922232,16.1971689 16.0814284,15.8192779 16.0814284,15.3534601 C16.0814284,14.8876422 15.6926273,14.5106401 15.2144448,14.5106401 L15.2144448,14.5106401 Z M16.55258,17.1111111 L5.47389042,17.1111111 C4.81217698,17.1111111 4.27621173,16.6688693 4.27621173,16.056906 L4.27621173,14.830833 C4.27621173,14.2200962 4.81217698,13.7777778 5.47389042,13.7777778 L16.5529841,13.7777778 C17.2146975,13.7777778 17.7510669,14.2200962 17.7510669,14.830833 L17.7510669,16.056906 C17.7506628,16.6688693 17.2146975,17.1111111 16.55258,17.1111111 L16.55258,17.1111111 Z" id="path-1"></path>
    </defs>
    <g id="移动营销客服端—app" stroke="none" stroke-width="1" fill="none" fill-rule="evenodd">
        <g id="登录页" transform="translate(-34.000000, -267.000000)">
            <g id="login/ic_serveric_server" transform="translate(34.000000, 267.000000)">
                <g>
                    <rect id="Rectangle-3" x="1" y="1" width="20" height="20"></rect>
                    <g id="Fill-1">
                        <use fill="#FFFFFF" xlink:href="#path-1"></use>
                        <use fill="#B6BACD" xlink:href="#path-1"></use>
                    </g>
                </g>
            </g>
        </g>
    </g>
</svg>