<?xml version="1.0" encoding="UTF-8"?>
<svg width="33px" height="23px" viewBox="0 0 33 23" version="1.1" xmlns="http://www.w3.org/2000/svg" xmlns:xlink="http://www.w3.org/1999/xlink">
    <!-- Generator: Sketch 52.6 (67491) - http://www.bohemiancoding.com/sketch -->
    <title>删除icon</title>
    <desc>Created with Sketch.</desc>
    <g id="移动营销客服端—app" stroke="none" stroke-width="1" fill="none" fill-rule="evenodd">
        <g id="聊天详情——表情包—表情选中状态" transform="translate(-271.000000, -1058.000000)">
            <g id="分组-6" transform="translate(0.000000, 883.000000)">
                <g id="分组-12" transform="translate(10.000000, 167.000000)">
                    <g id="分组-8" transform="translate(261.000000, 8.000000)">
                        <g id="分组-4">
                            <path d="M1.24505337,9.80265721 L6.83581166,1.34559821 C7.39124126,0.505407909 8.33121619,2.84955216e-15 9.33840126,2.66453526e-15 L30.4430966,0 C31.5476661,1.75920346e-15 32.4430966,0.8954305 32.4430966,2 L32.4430966,20.914118 C32.4430966,22.0186875 31.5476661,22.914118 30.4430966,22.914118 L9.33840126,22.914118 C8.33121619,22.914118 7.39124126,22.4087101 6.83581166,21.5685198 L1.24505337,13.1114608 C0.581839511,12.1082268 0.581839511,10.8058912 1.24505337,9.80265721 Z" id="路径-2" fill="#F1F2F7"></path>
                            <path d="M22.8022176,16.394187 C22.6428989,16.394187 22.4835802,16.3145276 22.3640912,16.2348683 L18.5006127,12.3713897 L14.6371342,16.2348683 C14.3981561,16.4738463 13.9998594,16.4738463 13.7608813,16.2348683 C13.6413923,16.1153792 13.6015626,15.9560605 13.6015626,15.7967418 C13.6015626,15.6374231 13.681222,15.4781044 13.7608813,15.3586154 L17.6243598,11.4951369 L13.7608813,7.63165836 C13.681222,7.51216934 13.6015626,7.35285064 13.6015626,7.19353193 C13.6015626,7.03421323 13.681222,6.87489453 13.7608813,6.7554055 C13.9998594,6.51642745 14.3981561,6.51642745 14.6371342,6.7554055 L18.5006127,10.618884 L22.3640912,6.7554055 C22.6030693,6.51642745 23.001366,6.51642745 23.2403441,6.7554055 C23.4793221,6.99438356 23.4793221,7.39268031 23.2403441,7.63165836 L19.3768656,11.4951369 L23.2403441,15.3586154 C23.4793221,15.5975935 23.4793221,15.9958902 23.2403441,16.2348683 C23.1208551,16.3145276 22.9615364,16.394187 22.8022176,16.394187 Z" id="路径" fill="#959CB6"></path>
                        </g>
                    </g>
                </g>
            </g>
        </g>
    </g>
</svg>