<?xml version="1.0" encoding="UTF-8"?>
<svg width="35px" height="35px" viewBox="0 0 35 35" version="1.1" xmlns="http://www.w3.org/2000/svg" xmlns:xlink="http://www.w3.org/1999/xlink">
    <!-- Generator: Sketch 52.6 (67491) - http://www.bohemiancoding.com/sketch -->
    <title>分组 77</title>
    <desc>Created with Sketch.</desc>
    <g id="移动营销V3.3" stroke="none" stroke-width="1" fill="none" fill-rule="evenodd">
        <g id="用户管理—消息列表-聊天记录-文件" transform="translate(-794.000000, -430.000000)">
            <g id="分组-73" transform="translate(765.000000, 234.000000)">
                <g id="分组-70">
                    <g id="分组-74" transform="translate(29.000000, 193.000000)">
                        <g id="分组-77" transform="translate(0.000000, 3.000000)">
                            <rect id="矩形" fill="#D8D8D8" x="0" y="0" width="35" height="35" rx="2"></rect>
                            <path d="M25.6597405,7.20588235 L10.3717263,7.20588235 C9.75946362,7.20588235 9.26470588,7.70989881 9.26470588,8.33250738 L9.26470588,27.6969044 C9.26470588,28.319513 9.76152511,28.8235294 10.3717263,28.8235294 L19.5329905,28.8235294 C19.8215992,28.8235294 20.0957774,28.707055 20.299865,28.5016365 L26.4472299,22.2543737 C26.6513175,22.0468375 26.7646995,21.767299 26.7646995,21.4750542 L26.7646995,8.33674281 C26.766761,7.70989881 26.2720032,7.20588235 25.6597405,7.20588235 Z M19.2340744,27.6947867 L10.8149468,27.6947867 C10.5696294,27.6947867 10.3717263,27.4936036 10.3717263,27.2437131 L10.3717263,8.78146321 C10.3717263,8.53369042 10.5696294,8.33038966 10.8149468,8.33038966 L25.21652,8.33038966 C25.4618374,8.33038966 25.6597405,8.5315727 25.6597405,8.78146321 L25.6597405,21.1658676 L19.2485048,21.1658676 L19.2485048,27.6947867 L19.2340744,27.6947867 Z M20.3555252,26.8646419 L20.3555252,22.2903749 L24.8557592,22.2903749 L20.3555252,26.8646419 Z M15.4203168,13.260433 L21.9284425,13.260433 C22.2273587,13.260433 22.4706146,13.0105425 22.4706146,12.7034736 C22.4706146,12.3964048 22.2273587,12.1465143 21.9284425,12.1465143 L15.4203168,12.1465143 C15.1214006,12.1465143 14.8781447,12.3964048 14.8781447,12.7034736 C14.8781447,13.0105425 15.1214006,13.260433 15.4203168,13.260433 Z M22.4706146,16.6043069 C22.4706146,16.297238 22.2273587,16.0473475 21.9284425,16.0473475 L15.4203168,16.0473475 C15.1214006,16.0473475 14.8781447,16.297238 14.8781447,16.6043069 C14.8781447,16.9113757 15.1214006,17.1612663 15.4203168,17.1612663 L21.9284425,17.1612663 C22.2273587,17.1612663 22.4706146,16.9113757 22.4706146,16.6043069 Z" id="形状" fill="#FFFFFF" fill-rule="nonzero"></path>
                        </g>
                    </g>
                </g>
            </g>
        </g>
    </g>
</svg>