<?xml version="1.0" encoding="UTF-8"?>
<svg width="22px" height="23px" viewBox="0 0 22 23" version="1.1" xmlns="http://www.w3.org/2000/svg" xmlns:xlink="http://www.w3.org/1999/xlink">
    <!-- Generator: Sketch 52.6 (67491) - http://www.bohemiancoding.com/sketch -->
    <title>笑脸</title>
    <desc>Created with Sketch.</desc>
    <g id="移动营销客服端—app" stroke="none" stroke-width="1" fill="none" fill-rule="evenodd">
        <g id="聊天详情——图片" transform="translate(-128.000000, -841.000000)" fill="#959CB6" fill-rule="nonzero">
            <g id="笑脸" transform="translate(128.000000, 841.500000)">
                <path d="M10.9998293,22.0000269 C4.93444416,22.0000269 0.0004051344,17.0652145 0.0004051344,10.9998293 C0.0004051344,4.93521759 4.93444416,0.0004051344 10.9998293,0.0004051344 C17.0652145,0.0004051344 22.0000269,4.93444416 22.0000269,10.9998293 C21.9992535,17.0652145 17.0652145,22.0000269 10.9998293,22.0000269 Z M10.9998293,1.15718879 C5.57298151,1.15718879 1.15718879,5.57298151 1.15718879,10.9998293 C1.15718879,16.4274291 5.57298151,20.8432433 10.9998293,20.8432433 C16.4274291,20.8432433 20.8432433,16.4274506 20.8432433,10.9998293 C20.8424699,5.57298151 16.4274506,1.15718879 10.9998293,1.15718879 Z M10.9998293,17.4831717 C8.84359216,17.4831717 6.80225347,16.5385033 5.3971748,14.8920047 C5.18894816,14.6498542 5.2190263,14.2842974 5.46195022,14.0768442 C5.70253234,13.868639 6.06886256,13.8987172 6.27706772,14.1416196 C7.46163068,15.5297471 9.18368994,16.3264095 10.9998293,16.3264095 C12.8167636,16.3264095 14.5388014,15.5297686 15.7233429,14.1416196 C15.932343,13.8987172 16.2971048,13.868639 16.5384819,14.0768442 C16.7814058,14.2842974 16.8114839,14.6490807 16.6032573,14.8920047 C15.1981786,16.5384819 13.156088,17.4831932 10.9998293,17.4831932 L10.9998293,17.4831717 Z M7.53104673,10.8317355 L7.39068925,10.8317355 C6.8770621,10.8317355 6.45987834,10.4145088 6.45987834,9.9009246 L6.45987834,8.23438098 C6.45987834,7.72154875 6.87710507,7.30434351 7.39068925,7.30434351 L7.53104673,7.30434351 C8.04387896,7.30434351 8.46110568,7.72157024 8.46110568,8.23440247 L8.46110568,9.9009246 C8.46110568,10.4145303 8.04387896,10.8317355 7.53104673,10.8317355 Z M14.6089694,10.8317355 L14.4686119,10.8317355 C13.9557797,10.8317355 13.538553,10.4145088 13.538553,9.9009246 L13.538553,8.23438098 C13.538553,7.72154875 13.9557797,7.30434351 14.4686119,7.30434351 L14.6089694,7.30434351 C15.1218016,7.30434351 15.5390283,7.72157024 15.5390283,8.23440247 L15.5390283,9.9009246 C15.5390283,10.4145303 15.1218016,10.8317355 14.6089694,10.8317355 Z" id="形状"></path>
            </g>
        </g>
    </g>
</svg>