<?xml version="1.0" encoding="UTF-8"?>
<svg width="20px" height="20px" viewBox="0 0 20 20" version="1.1" xmlns="http://www.w3.org/2000/svg" xmlns:xlink="http://www.w3.org/1999/xlink">
    <!-- Generator: Sketch 52.6 (67491) - http://www.bohemiancoding.com/sketch -->
    <title>感叹号icon</title>
    <desc>Created with Sketch.</desc>
    <g id="移动营销客服端—app" stroke="none" stroke-width="1" fill="none" fill-rule="evenodd">
        <g id="通讯录-空状态扫码同步—失败" transform="translate(-105.000000, -542.000000)" fill="#FFFFFF" fill-rule="nonzero">
            <g id="分组-9" transform="translate(84.000000, 529.000000)">
                <g id="分组-8" transform="translate(21.000000, 13.000000)">
                    <g id="感叹号">
                        <path d="M10.2349624,5.23630505 L9.77309345,5.23630505 C9.48845328,5.23630505 9.25617615,5.46858217 9.25617615,5.75456498 L9.25617615,11.4889903 C9.25617615,11.7749731 9.48711063,12.0099356 9.77309345,12.0099356 L10.2349624,12.0099356 C10.5222879,12.0099356 10.754565,11.7749731 10.754565,11.4889903 L10.754565,5.75456498 C10.754565,5.46858217 10.5222879,5.23630505 10.2349624,5.23630505 Z M10,0 C4.4763695,0 0,4.4763695 0,10 C0,15.5182599 4.4763695,19.9973147 10,19.9973147 C15.5196026,19.9973147 20,15.5182599 20,10 C20,4.4763695 15.5196026,5.96252967e-16 10,0 Z M9.90870032,18.7513426 C5.10338346,18.7513426 1.20972073,14.8563373 1.20972073,10.0510204 C1.20972073,5.2443609 5.10338346,1.35204082 9.90870032,1.35204082 C14.7180451,1.35204082 18.6103652,5.2443609 18.6103652,10.0510204 C18.6103652,14.8563373 14.7180451,18.7513426 9.90870032,18.7513426 Z M10.2054243,13.8225027 L9.77309345,13.8225027 C9.48845328,13.8225027 9.25617615,14.0547798 9.25617615,14.3461332 L9.25617615,14.8899033 C9.25617615,15.1772288 9.48711063,15.4121912 9.77309345,15.4121912 L10.2054243,15.4121912 C10.4927497,15.4121912 10.7250269,15.1772288 10.7250269,14.8899033 L10.7250269,14.3461332 C10.7250269,14.0534372 10.4940924,13.8225027 10.2054243,13.8225027 Z" id="感叹号icon"></path>
                    </g>
                </g>
            </g>
        </g>
    </g>
</svg>