<?xml version="1.0" encoding="UTF-8"?>
<svg width="23px" height="22px" viewBox="0 0 23 22" version="1.1" xmlns="http://www.w3.org/2000/svg" xmlns:xlink="http://www.w3.org/1999/xlink">
    <!-- Generator: Sketch 52.6 (67491) - http://www.bohemiancoding.com/sketch -->
    <title>常用语icon</title>
    <desc>Created with Sketch.</desc>
    <g id="移动营销客服端—app" stroke="none" stroke-width="1" fill="none" fill-rule="evenodd">
        <g id="聊天详情——表情包—表情选中状态" transform="translate(-14.000000, -841.000000)" fill="#959CB6" fill-rule="nonzero">
            <g id="常用语" transform="translate(14.000000, 841.000000)">
                <path d="M19.375,1 L3.625,1 C2.17767076,1 1,2.16967098 1,3.6071832 L1,18.3928168 C1,19.8308463 2.1776642,21 3.625,21 L19.375,21 C20.8228567,21 22,19.8308333 22,18.3928168 L22,3.6071832 C22,2.1696775 20.8228435,1 19.375,1 Z M20.95,18.3928168 C20.95,19.2554346 20.2435127,19.9571267 19.375,19.9571267 L3.625,19.9571267 C2.75648734,19.9571267 2.05,19.2554346 2.05,18.3928168 L2.05,3.6071832 C2.05,2.74456545 2.75648734,2.04287328 3.625,2.04287328 L19.375,2.04287328 C20.2435127,2.04287328 20.95,2.74456545 20.95,3.6071832 L20.95,18.3928168 Z M11.9098777,11.5801856 L14.34621,11.5801856 L14.34621,12.0201487 L15.2813549,12.0201487 L15.2813549,8.90373156 L7.57863101,8.90373156 L7.57863101,12.0201487 L8.51377591,12.0201487 L8.51377591,11.5801856 L10.925488,11.5801856 L10.925488,12.7289769 L6.52043302,12.7289769 L6.52043302,16.2120173 L7.4801916,16.2120173 L7.4801916,13.5355828 L10.9254945,13.5355828 L10.9254945,17.1530612 L11.9098668,17.1530612 L11.9098668,13.5355828 L15.465928,13.5355828 L15.465928,14.6843741 C15.465928,15.1243372 15.2116216,15.344309 14.7030307,15.344309 C14.2764767,15.344309 13.8129901,15.3198628 13.3125973,15.2709926 C13.3864368,15.6131953 13.4479585,15.9268563 13.4971629,16.2120256 C14.0385633,16.220167 14.5184437,16.2242377 14.9368019,16.2242377 C15.9293721,16.2242377 16.425666,15.7557568 16.425666,14.818795 L16.425666,12.7289924 L11.9098746,12.7289924 L11.9098746,11.5802012 L11.9098777,11.5801856 Z M8.51379342,10.7980416 L8.51379342,9.68590825 L14.34621,9.68590825 L14.34621,10.7980416 L8.51379342,10.7980416 Z M14.2108534,7.24166341 L17.0163143,7.24166341 L17.0163143,9.40480362 L16.0565557,9.40480362 L16.0565557,8.07269857 L6.75421596,8.07269857 L6.75421596,9.40480362 L5.79445738,9.40480362 L5.79445738,7.24166341 L8.69220597,7.24166341 C8.1426076,6.77725367 7.57042208,6.3291482 6.97569753,5.89732526 L7.54171158,5.26183699 C8.156953,5.66921331 8.77629123,6.09694333 9.39970876,6.5450488 L8.74141145,7.24166341 L10.9131866,7.24166341 L10.9131866,5.10296764 L11.8975589,5.10296764 L11.8975589,7.24166341 L13.9278256,7.24166341 L13.4356285,6.63059785 C14.1082931,6.19063256 14.7481241,5.72215164 15.3551675,5.2251551 L16.0688396,5.9461946 C15.4823546,6.37803927 14.8630142,6.80984047 14.2108665,7.24166341 L14.2108534,7.24166341 Z" id="形状"></path>
            </g>
        </g>
    </g>
</svg>