<?xml version="1.0" encoding="UTF-8"?>
<svg width="42px" height="42px" viewBox="0 0 42 42" version="1.1" xmlns="http://www.w3.org/2000/svg" xmlns:xlink="http://www.w3.org/1999/xlink">
    <!-- Generator: Sketch 52.6 (67491) - http://www.bohemiancoding.com/sketch -->
    <title>默认群头像</title>
    <desc>Created with Sketch.</desc>
    <g id="移动营销客服端—app" stroke="none" stroke-width="1" fill="none" fill-rule="evenodd">
        <g id="群聊列表" transform="translate(-20.000000, -129.000000)">
            <g id="默认群头像" transform="translate(20.000000, 129.000000)">
                <rect id="矩形" fill="#38B549" x="0" y="0" width="42" height="42" rx="2"></rect>
                <path d="M30.2412435,31.2327978 C30.618483,28.6873243 29.7843116,26.3420563 27.738675,24.1970208 C30.7696387,24.1970208 33.233931,26.56029 33.233931,29.4661929 L33.233931,29.7812811 C33.233931,31.2955448 31.8545272,31.18724 30.2412164,31.2327978 L30.2412435,31.2327978 Z M27.1244698,23.5663573 C24.5465941,21.8636904 26.1062804,22.5757787 22.9312261,21.5817082 C25.1499175,20.3155629 25.9117595,19.3197328 26.1062804,15.6788137 C28.4654891,15.6788137 30.3828707,17.5895904 30.3828707,19.9379173 C30.3828707,22.2862442 29.4836244,23.5663573 27.1244427,23.5663573 L27.1244698,23.5663573 Z M21.2416337,32.6964417 L16.6793256,32.6964417 C12.3934774,32.6964417 9,32.6964417 9,30.528316 L9,30.0771499 C9,25.9163084 12.4437724,22.5325489 16.6793256,22.5325489 L21.2416879,22.5325489 C25.477241,22.5325489 28.9210134,25.9163354 28.9210134,30.0771499 L28.9210134,30.528316 C28.9210134,32.6964417 25.364172,32.6964417 21.2416879,32.6964417 L21.2416608,32.6964417 L21.2416337,32.6964417 Z M18.7405541,21.9560513 C15.3847573,21.9560513 12.6574043,19.2740937 12.6574043,15.9780392 C12.6574043,12.6819576 15.3847573,10 18.740527,10 C22.0963238,10 24.8236497,12.6819576 24.8236497,15.9780121 C24.8236497,19.2740937 22.0962967,21.9560242 18.740527,21.9560242 L18.7405541,21.9560513 Z" id="形状" fill="#FFFFFF" fill-rule="nonzero"></path>
            </g>
        </g>
    </g>
</svg>