<?xml version="1.0" encoding="UTF-8"?>
<svg width="18px" height="16px" viewBox="0 0 18 16" version="1.1" xmlns="http://www.w3.org/2000/svg" xmlns:xlink="http://www.w3.org/1999/xlink">
    <!-- Generator: Sketch 52.6 (67491) - http://www.bohemiancoding.com/sketch -->
    <title>客服端—资料icon</title>
    <desc>Created with Sketch.</desc>
    <g id="移动营销V3.3" stroke="none" stroke-width="1" fill="none" fill-rule="evenodd">
        <g id="pc客服版本-弹窗" transform="translate(-1441.000000, -107.000000)" fill="#959CB6" fill-rule="nonzero">
            <g id="资料" transform="translate(1441.000000, 107.000000)">
                <path d="M16.4706118,3.61672296 C16.4706118,2.79116887 15.8023063,2.08355242 14.9374412,2.08355242 L5.07010161,2.08355242 C4.24454753,2.08355242 3.53692951,2.75185789 3.53692951,3.61672296 L3.53692951,14.427548 C3.53692951,15.2531021 4.20523498,15.9607186 5.07010161,15.9607186 L9.11924695,15.9607186 C9.3551191,15.9607186 9.55168026,15.7641574 9.55168026,15.5282853 C9.55168025,15.2924131 9.3551191,15.0958519 9.11924695,15.0958519 L5.07010161,15.0958519 C4.71629339,15.0958519 4.40179615,14.7813547 4.40179615,14.4275465 L4.40179615,3.6167214 C4.40179615,3.22360063 4.71629339,2.94841593 5.07010161,2.94841593 L14.9374412,2.94841593 C15.330562,2.94841593 15.6400122,3.26291317 15.6400122,3.6167214 L15.6400122,10.4177137 L11.7924766,10.4177137 C11.3207323,10.4177137 10.888299,10.8108345 10.888299,11.3218913 L10.888299,15.4889743 C10.888299,15.8034715 11.0062352,15.9607186 11.2027962,15.9607186 C11.3207325,15.9607186 11.4779809,15.8820944 11.5566045,15.7641574 L16.2658551,11.0231503 C16.3837913,10.9052141 16.4624163,10.7872782 16.4624163,10.6693421 L16.4706118,7.03686756 L16.4706118,3.61672296 Z M11.7531688,14.5061584 L11.7531688,11.3218725 C11.7531688,11.2825605 11.7924808,11.2432484 11.8317929,11.2432484 L15.0160779,11.2432484 L11.7924804,14.5061584 L11.7531688,14.5061584 Z M5.77772431,8.96315105 L14.3477655,8.96315105 C14.4657018,8.96315105 14.6229502,8.92383898 14.7015738,8.80590243 C14.7801979,8.72727828 14.8588224,8.60934127 14.8588224,8.45209421 C14.8588224,8.17690951 14.6622612,7.98034991 14.3870781,7.98034991 L5.81703686,7.98034991 C5.54185216,7.98034991 5.34529256,8.17691108 5.34529256,8.45209421 C5.34529256,8.72727891 5.54185372,8.92383851 5.81703686,8.92383851 L5.77772431,8.96315105 Z M5.77772431,5.93611628 L14.3477655,5.93611628 C14.6229502,5.93611628 14.8195098,5.73955512 14.8195098,5.46437198 C14.8195098,5.18918729 14.6229487,4.99262768 14.3477655,4.99262768 L5.77772431,4.99262768 C5.50253961,4.99262768 5.30598001,5.18918885 5.30598001,5.46437198 C5.30598001,5.73955668 5.50254118,5.93611628 5.77772431,5.93611628 Z M3.0651899,0.864860381 L12.9325295,0.864860381 C13.2863377,0.864860381 13.600835,1.17935762 13.600835,1.53316585 L14.4263891,1.53316585 C14.4263891,0.707611761 13.7580836,-4.68750568e-06 12.8932185,-4.68750568e-06 L3.02587892,-4.68750568e-06 C2.20032483,-4.68750568e-06 1.49270839,0.668300778 1.49270839,1.53316585 L1.49270839,12.3439909 C1.49270839,13.169545 2.16101385,13.8771615 3.02587892,13.8771615 L3.02587892,13.0516074 C2.63275815,13.0516074 2.35757345,12.7371101 2.35757345,12.3833019 L2.35757345,1.57247683 C2.35757345,1.17935606 2.6720707,0.863954969 3.02587892,0.863954969 L3.0651899,0.864860381 Z" id="形状"></path>
            </g>
        </g>
    </g>
</svg>