<?xml version="1.0" encoding="UTF-8"?>
<svg width="36px" height="36px" viewBox="0 0 36 36" version="1.1" xmlns="http://www.w3.org/2000/svg" xmlns:xlink="http://www.w3.org/1999/xlink">
    <!-- Generator: Sketch 52.6 (67491) - http://www.bohemiancoding.com/sketch -->
    <title>分组 10</title>
    <desc>Created with Sketch.</desc>
    <g id="移动营销V3.3" stroke="none" stroke-width="1" fill="none" fill-rule="evenodd">
        <g id="pc客服版本-公共常用语" transform="translate(-1002.000000, -757.000000)">
            <g id="分组-68" transform="translate(360.000000, 84.000000)">
                <g id="分组-48">
                    <g id="分组-50">
                        <g id="分组-49">
                            <g id="分组-46" transform="translate(386.000000, 17.000000)">
                                <g id="分组-62" transform="translate(158.500000, 458.000000)">
                                    <g id="分组-60">
                                        <g id="分组-7" transform="translate(0.000000, 94.000000)">
                                            <g id="分组-51" transform="translate(158.500000, 76.500000) scale(-1, 1) translate(-158.500000, -76.500000) translate(0.000000, 0.500000)">
                                                <g id="分组-44">
                                                    <g id="对话框3">
                                                        <g id="分组-67">
                                                            <g id="分组-8-copy" transform="translate(172.000000, 92.000000)">
                                                                <g id="分组-9" transform="translate(12.000000, 12.000000)">
                                                                    <g id="分组-10">
                                                                        <rect id="矩形" fill="#EFEFEF" transform="translate(17.500000, 17.500000) scale(-1, 1) translate(-17.500000, -17.500000) " x="0" y="0" width="35" height="35"></rect>
                                                                        <g id="链接" opacity="0.617373512" transform="translate(17.000000, 18.000000) scale(-1, 1) translate(-17.000000, -18.000000) translate(9.500000, 10.500000)" fill="#464545" fill-rule="nonzero">
                                                                            <path d="M6.26087838,9.30978537 C6.0652263,9.30978537 5.9347906,9.24456796 5.80435636,9.11413329 C4.43478885,7.74456577 4.43478885,5.52716622 5.80435636,4.09239404 L8.86957477,1.02717563 C10.2391423,-0.342391878 12.5217568,-0.342391878 13.891314,1.02717563 C14.5434881,1.67934973 14.9347937,2.5923923 14.9347937,3.50544512 C14.9347937,4.41848915 14.5434896,5.33153611 13.891314,5.9837146 L12.1956529,7.8098056 C11.9347829,8.07067553 11.5434788,8.07067553 11.3478252,7.8098056 C11.0869553,7.54893566 11.0869553,7.1576315 11.3478252,6.96197795 L13.1087013,5.20110188 C14.0217453,4.28805785 14.0217453,2.85327688 13.1087013,1.94022406 C12.1956573,1.02718003 10.7608763,1.02718003 9.84782347,1.94022406 L6.78260506,5.00544247 C5.86956103,5.9184865 5.86956103,7.35326747 6.78260506,8.26632029 C7.04347499,8.52719022 7.04347499,8.91849439 6.78260506,9.11414793 C6.65217009,9.17936534 6.45651728,9.30980002 6.2608652,9.30980002 L6.26087838,9.30978537 Z M3.52174922,14.9837031 C2.54348733,14.9837031 1.69565822,14.5923989 1.04347973,13.9402234 C0.391305631,13.2880493 0,12.3750067 0,11.4619539 C0,10.5489099 0.391304166,9.6358629 1.04347973,8.9836844 L2.8043558,7.22280833 C3.06522573,6.9619384 3.4565299,6.9619384 3.65218345,7.22280833 C3.91305338,7.48367826 3.91305338,7.87498243 3.65218345,8.07063598 L1.89130738,9.83151205 C0.978263345,10.7445561 0.978263345,12.179337 1.89130738,13.0923899 C2.28261154,13.483694 2.86956926,13.744564 3.52173896,13.744564 C4.17391306,13.744564 4.76087077,13.483694 5.15217055,13.0923899 L8.21738896,10.0271715 C8.60869312,9.63586729 8.86956306,9.04890958 8.86956306,8.39673987 C8.86956306,7.74456577 8.60869312,7.22282591 8.21738896,6.76630829 C7.95651902,6.50543836 7.95651902,6.11413419 8.21738896,5.91848064 C8.47825889,5.65761071 8.86956306,5.65761071 9.0652166,5.91848064 C9.7173907,6.57065474 10.1086963,7.48369731 10.1086963,8.39675013 C10.1086963,9.37501201 9.71739217,10.2228411 9.0652166,10.8750196 L5.99999819,13.940238 C5.34782409,14.5924121 4.49999645,14.9837178 3.52172871,14.9837178 L3.52174922,14.9837031 Z" id="形状"></path>
                                                                        </g>
                                                                    </g>
                                                                </g>
                                                            </g>
                                                        </g>
                                                    </g>
                                                </g>
                                            </g>
                                        </g>
                                    </g>
                                </g>
                            </g>
                        </g>
                    </g>
                </g>
            </g>
        </g>
    </g>
</svg>