<?xml version="1.0" encoding="UTF-8"?>
<svg width="18px" height="18px" viewBox="0 0 18 18" version="1.1" xmlns="http://www.w3.org/2000/svg" xmlns:xlink="http://www.w3.org/1999/xlink">
    <!-- Generator: Sketch 52.6 (67491) - http://www.bohemiancoding.com/sketch -->
    <title>定位</title>
    <desc>Created with Sketch.</desc>
    <g id="移动营销客服端—app" stroke="none" stroke-width="1" fill="none" fill-rule="evenodd">
        <g id="聊天详情——表情包—表情未选中状态" transform="translate(-223.000000, -674.000000)" fill="#F15E48">
            <g id="定位" transform="translate(223.000000, 674.000000)">
                <g id="分组">
                    <path d="M9.15663366,15.3771789 C8.8580371,15.3771789 8.60923003,15.2278807 8.45993175,15.028828 C6.91724719,13.0382486 3.38396568,8.11158079 3.38396568,5.6731241 C3.43373762,2.53798303 5.97172066,1.21886501e-15 9.15663366,1.21886501e-15 C12.3415467,1.21886501e-15 14.9293016,2.53798303 14.9293016,5.6731241 C14.9293016,8.11158079 11.3960201,12.9884766 9.85333557,15.028828 C9.70403729,15.2278807 9.45521268,15.3771789 9.15663366,15.3771789 Z M10.2514409,6.8177033 C10.5500375,6.51912429 10.6993358,6.17077333 10.6993358,5.77266798 C10.6993358,5.37456263 10.5500375,5.02619412 10.2514409,4.72761511 C9.95286191,4.42901855 9.60451095,4.27972027 9.2064056,4.27972027 C8.80830025,4.27972027 8.45993175,4.42901855 8.16135273,4.72761511 C7.86275617,5.02621167 7.71345789,5.37454508 7.71345789,5.77266798 C7.71345789,6.17079088 7.86275617,6.56889623 8.16135273,6.8177033 C8.45994929,7.11629986 8.8082827,7.26559814 9.2064056,7.26559814 C9.55473901,7.26559814 9.95286191,7.11629986 10.2514409,6.8177033 Z" id="形状" fill-rule="nonzero"></path>
                    <path d="M17.3179864,13.1377749 C17.0193898,12.7396696 16.5715125,12.441073 16.0241089,12.2420203 C15.625986,12.092722 15.1283543,11.9931957 14.680477,11.9434238 L13.8344768,13.2373013 L14.1828278,13.2373013 L14.8795297,13.2870732 C15.8748106,13.4363715 16.3724599,13.9340032 16.4719862,14.0833014 C16.6212845,14.2325997 16.7208108,14.4316524 16.7208108,14.5809507 C16.7208108,14.8297578 16.3226879,15.3771789 14.7302314,15.8748106 C13.2870732,16.3227055 11.1969675,16.5715125 8.95758098,16.5715125 C6.71819451,16.5715125 4.62807123,16.3226879 3.13515861,15.8748106 C1.54270211,15.3771789 1.09480727,14.8297578 1.09480727,14.5809507 C1.09480727,14.2325997 1.19435115,14.0335295 1.39340383,13.8842488 C1.69200038,13.6354242 2.18963208,13.4861259 2.88633399,13.4363539 L2.98586033,13.4363539 C3.03561473,13.4363539 3.23468495,13.4363539 3.6327903,13.3865995 C3.73231664,13.3865995 3.83186052,13.3865995 3.98114126,13.3368276 L3.13515861,12.0429676 C2.09010574,12.092722 1.29387749,12.3415642 0.74645631,12.7396696 C0.298596559,13.1875469 1.21886501e-15,13.7847224 1.21886501e-15,14.5809507 C1.21886501e-15,15.2278807 0.298596559,15.7752843 0.945526531,16.2729335 C1.39340383,16.6212845 2.09008819,16.9696354 2.93608839,17.2184601 C4.52854489,17.7160917 6.66842257,17.9649164 9.05710732,17.9649164 C11.4457921,17.9649164 13.5856522,17.7160917 15.1283368,17.2184601 C15.974337,16.9696354 16.6212845,16.6710389 17.0691618,16.2729335 C17.6663373,15.8250387 17.9649164,15.2278807 17.9649164,14.6307051 C17.9151444,14.0833014 17.7160917,13.5856522 17.3179864,13.1377749 Z" id="路径"></path>
                </g>
            </g>
        </g>
    </g>
</svg>