<?xml version="1.0" encoding="UTF-8"?>
<svg width="64px" height="61px" viewBox="0 0 64 61" version="1.1" xmlns="http://www.w3.org/2000/svg" xmlns:xlink="http://www.w3.org/1999/xlink">
    <!-- Generator: Sketch 52.6 (67491) - http://www.bohemiancoding.com/sketch -->
    <title>聊天</title>
    <desc>Created with Sketch.</desc>
    <g id="移动营销客服端—app" stroke="none" stroke-width="1" fill="none" fill-rule="evenodd">
        <g id="登录页" transform="translate(-156.000000, -97.000000)" fill-rule="nonzero">
            <g id="聊天" transform="translate(156.000000, 97.000000)">
                <path d="M28.6273214,5.84623162e-05 C12.8266547,5.84623162e-05 0,10.9754282 0,24.5122847 C0,32.9884009 5.02155946,40.4519481 12.6348243,44.8494678 C12.7303942,48.6446593 12.4105736,54.116398 10.0115416,55.6348906 C10.0115416,55.6348906 16.7925185,55.9828079 22.3265062,48.4235837 L22.3265054,48.4235836 C24.3924612,48.8175186 26.4914765,49.0187011 28.5957312,49.0244645 L29.1074439,49.0244645 C42.5414295,48.8026578 53.737373,40.6744384 56.5194327,29.8259404 C56.9671814,28.1175129 57.1914309,26.3467679 57.1914309,24.5122262 C57.2230584,10.9753697 44.4286993,0 28.6273616,0 L28.6273214,5.84623162e-05 Z M15.9992427,27.4835087 C13.9344177,27.4863407 12.2582041,25.8458066 12.2553237,23.819273 C12.255313,23.8117497 12.2553259,23.8042265 12.2553623,23.7967032 L12.2553622,23.7966769 C12.2455613,21.770161 13.9114732,20.119555 15.9762742,20.1099315 C15.9841867,20.1098946 15.9920993,20.1098824 16.0000119,20.1098949 C18.0648371,20.1066617 19.7413807,21.7468726 19.7446752,23.7734062 C19.7446878,23.781172 19.7446753,23.7889379 19.7446377,23.7967036 L19.7446378,23.7967298 C19.7544388,25.8232456 18.0885268,27.4738517 16.0237258,27.4834751 C16.0158133,27.483512 16.0079007,27.4835242 15.9999881,27.4835118 L15.9992427,27.4835087 Z M28.9357885,27.4835117 C26.8711673,27.486745 25.1947891,25.8465343 25.191495,23.8200012 C25.1914824,23.8122353 25.1914949,23.8044694 25.1915325,23.7967037 L25.1915324,23.7966774 C25.1817325,21.7701619 26.8474799,20.1195562 28.9120771,20.1099328 C28.9199888,20.1098959 28.9279006,20.1098837 28.9358124,20.1098961 L28.9358126,20.1098961 C31.0004338,20.1062617 32.677142,21.7461432 32.6808441,23.7726764 C32.6808588,23.7806849 32.6808467,23.7886934 32.6808079,23.7967017 L32.680808,23.7967291 C32.6906081,25.8232445 31.0248605,27.4738503 28.9602634,27.4834737 C28.9521045,27.4835117 28.9439454,27.4835235 28.9357864,27.4835091 L28.9357885,27.4835117 Z M41.1914774,27.4835117 C39.1266523,27.486745 37.4501086,25.846534 37.4468142,23.8200006 C37.4468016,23.8122347 37.446814,23.8044688 37.4468517,23.796703 L37.4468515,23.7966767 C37.4370507,21.770161 39.1029625,20.119555 41.1677635,20.1099315 C41.1756761,20.1098946 41.1835887,20.1098824 41.1915013,20.1098949 C43.2563264,20.1066617 44.9328701,21.7468725 44.9361645,23.773406 C44.9361772,23.7811718 44.9361647,23.7889378 44.9361271,23.7967035 L44.9361272,23.7967296 C44.9459282,25.8232454 43.2800162,27.4738514 41.2152152,27.4834748 C41.2073027,27.4835117 41.1993901,27.4835239 41.1914775,27.4835115 L41.1914774,27.4835117 Z" id="形状" fill="#494B57"></path>
                <path d="M63.9999516,41.7727296 C63.9999516,38.1423856 62.5026017,34.764832 59.9851405,32.1758242 C57.2141428,43.003314 46.0630312,51.1168925 32.6808511,51.3378849 C35.8985157,54.7472424 40.8372688,56.9253026 46.3494058,56.9253026 C47.6871765,56.9253026 48.9615677,56.7996599 50.2046378,56.5468952 C53.6132027,61.2193361 57.7868557,60.9983497 57.7868557,60.9983497 C56.2895058,60.082636 56.0986055,56.7043156 56.1619911,54.337067 C60.9098198,51.6224367 64,46.9817758 64,41.7727889 L63.9999516,41.7727296 Z" id="路径" fill="#FDBE32"></path>
            </g>
        </g>
    </g>
</svg>