<?xml version="1.0" encoding="UTF-8"?>
<svg width="22px" height="23px" viewBox="0 0 22 23" version="1.1" xmlns="http://www.w3.org/2000/svg" xmlns:xlink="http://www.w3.org/1999/xlink">
    <!-- Generator: Sketch 52.6 (67491) - http://www.bohemiancoding.com/sketch -->
    <title>我 的—默认icon</title>
    <desc>Created with Sketch.</desc>
    <g id="移动营销客服端—app" stroke="none" stroke-width="1" fill="none" fill-rule="evenodd">
        <g id="消息—未读消息效果" transform="translate(-319.000000, -625.000000)" fill="#C3C6D6">
            <g id="分组-5" transform="translate(35.000000, 624.500000)">
                <g id="分组-4" transform="translate(283.000000, 0.000000)">
                    <g id="我-的" transform="translate(0.500000, 0.500000)">
                        <g id="分组" transform="translate(2.472865, 2.585941)">
                            <path d="M16.8573387,17.9247741 L1.10361971,17.9247741 C0.777961432,17.9247741 0.452303158,17.761945 0.248766737,17.5177013 C0.0452303158,17.2327503 -0.0361842526,16.907092 0.0452303158,16.5814338 C0.859376,12.4292908 4.23808059,9.33553718 8.30880901,9.00987891 C9.67250303,9.00987891 11.1481421,9.18288486 12.6237811,9.78331731 C13.0512076,9.95632326 13.1936831,10.0682683 13.4379268,10.1903901 C15.7989493,11.5337305 17.4272407,13.8540457 17.9564354,16.5814338 C18.0378499,16.907092 17.9564354,17.2327503 17.7121917,17.5177013 C17.5086552,17.761945 17.182997,17.9247741 16.8573387,17.9247741 Z" id="路径"></path>
                            <path d="M1.12397335,17.2632808 C0.991674674,17.2632808 0.869552821,17.2123967 0.798315074,17.1208053 C0.788138253,17.1106285 0.788138253,17.1004516 0.777961432,17.0902748 C0.676193221,16.9885066 0.6660164,16.8155007 0.686370042,16.7137324 C1.4394548,12.8465404 4.60444615,9.94614644 8.39022358,9.67137227 L8.69552821,9.67137227 C10.5171792,9.67137227 12.2675924,10.2412743 13.1224454,10.7806458 C15.361346,12.1239861 16.8573387,14.2305881 17.3254725,16.7137324 C17.3458261,16.8562079 17.3152956,16.9885066 17.2135274,17.1208053 C17.1422897,17.2123967 17.0201678,17.2632808 16.8878692,17.2632808 L1.12397335,17.2632808 Z" id="路径"></path>
                            <path d="M8.69552821,9.91561598 C10.4662951,9.91561598 12.1658242,10.4651643 12.9901467,10.9841822 L13.0003235,10.9841822 C15.1781632,12.2766385 16.6232718,14.3221795 17.0710519,16.7442629 C17.0812288,16.795147 17.0812288,16.8663848 16.9998142,16.9579761 C16.9896374,16.9783298 16.9387533,16.9986834 16.8776923,16.9986834 L1.12397335,16.9986834 C1.06291242,16.9986834 1.01202832,16.9783298 1.00185149,16.9579761 C0.991674674,16.9376225 0.971321032,16.9172689 0.950967389,16.907092 C0.930613747,16.8867384 0.910260105,16.8256775 0.930613747,16.7544397 C1.66334486,12.9991928 4.726568,10.1903901 8.4004004,9.91561598 C8.49199179,9.9257928 8.59376,9.91561598 8.69552821,9.91561598 Z M8.69552821,9.40677493 C8.59376,9.40677493 8.48181497,9.40677493 8.38004676,9.41695175 C4.47214747,9.70190274 1.21556474,12.6735345 0.442126337,16.6628483 C0.401419053,16.8663848 0.442126337,17.1106285 0.604955474,17.2734576 C0.727077326,17.4362867 0.930613747,17.5177013 1.13415017,17.5177013 L16.8878692,17.5177013 C17.0914056,17.5177013 17.294942,17.4362867 17.4170639,17.2734576 C17.5391857,17.1106285 17.6206003,16.907092 17.579893,16.6628483 C17.0914056,14.0575821 15.5445288,11.9204497 13.2649209,10.5567557 C12.3998911,10.0173842 10.6291242,9.40677493 8.69552821,9.40677493 Z M9.00083284,9.37624446 C6.43627394,9.37624446 4.31949516,7.25946568 4.31949516,4.69490678 C4.31949516,2.13034787 6.43627394,0.0135690947 9.00083284,0.0135690947 C11.5653917,0.0135690947 13.6821705,2.13034787 13.6821705,4.69490678 C13.6821705,7.25946568 11.5653917,9.37624446 9.00083284,9.37624446 Z" id="形状" fill-rule="nonzero"></path>
                            <path d="M9.00083284,8.71475109 C6.78228585,8.71475109 4.98098853,6.91345377 4.98098853,4.69490678 C4.98098853,2.47635979 6.78228585,0.675062463 9.00083284,0.675062463 C11.2193798,0.675062463 13.0206772,2.47635979 13.0206772,4.69490678 C13.0206772,6.91345377 11.2193798,8.71475109 9.00083284,8.71475109 Z" id="路径"></path>
                            <path d="M9.00083284,0.929482989 C11.0769043,0.929482989 12.7662566,2.61883528 12.7662566,4.69490678 C12.7662566,6.77097827 11.0769043,8.46033057 9.00083284,8.46033057 C6.92476135,8.46033057 5.23540905,6.77097827 5.23540905,4.69490678 C5.23540905,2.61883528 6.92476135,0.929482989 9.00083284,0.929482989 Z M9.00083284,0.420641937 C6.63981036,0.420641937 4.726568,2.33388429 4.726568,4.69490678 C4.726568,7.05592926 6.63981036,8.96917162 9.00083284,8.96917162 C11.3618553,8.96917162 13.2750977,7.05592926 13.2750977,4.69490678 C13.2750977,2.33388429 11.3618553,0.420641937 9.00083284,0.420641937 Z" id="形状" fill-rule="nonzero"></path>
                        </g>
                    </g>
                </g>
            </g>
        </g>
    </g>
</svg>