<?xml version="1.0" encoding="UTF-8"?>
<svg width="23px" height="23px" viewBox="0 0 23 23" version="1.1" xmlns="http://www.w3.org/2000/svg" xmlns:xlink="http://www.w3.org/1999/xlink">
    <!-- Generator: Sketch 52.6 (67491) - http://www.bohemiancoding.com/sketch -->
    <title>通讯录—默认icon</title>
    <desc>Created with Sketch.</desc>
    <g id="移动营销客服端—app" stroke="none" stroke-width="1" fill="none" fill-rule="evenodd">
        <g id="消息—未读消息效果" transform="translate(-179.000000, -625.000000)" fill="#C3C6D6" fill-rule="nonzero">
            <g id="分组-5" transform="translate(35.000000, 625.500000)">
                <g id="分组-2" transform="translate(139.000000, 0.000000)">
                    <g id="通讯录" transform="translate(5.000000, 0.000000)">
                        <path d="M16.5249497,15.2153767 L12.8042276,13.7395596 C12.8042276,13.7395596 12.0974983,13.483197 11.8411357,13.1621663 C11.6494411,12.9704718 11.6494411,12.5847731 11.8411357,12.0720479 C11.9704718,11.5593226 13.8943461,9.37677616 13.8943461,7.45290185 C13.8943461,4.43890909 11.9058037,2 9.46689462,2 C7.02798553,2 5.04175275,4.43890909 5.04175275,7.45290185 C5.04175275,9.31210812 6.7739325,11.5593226 6.96562706,11.9427118 C7.15732162,12.3284105 7.09496315,12.9681622 6.96562706,13.1621663 C6.70926446,13.4185289 5.81084056,13.7395596 5.81084056,13.7395596 L2.4111491,15.2153767 C1.64206129,15.5364074 1,16.2408271 1,17.074583 L1,18.4880416 C1,19.3864655 1.76908781,19.9638588 2.66751171,19.9638588 L16.2662775,19.9638588 C17.1647014,19.9638588 17.9337892,19.3864655 17.9337892,18.4880416 L17.9337892,17.074583 C17.9360988,16.2408271 17.2940375,15.4717393 16.5249497,15.2153767 Z M15.8828884,8.28434813 C15.4971897,8.28434813 15.1761591,8.09265357 15.1761591,7.64228684 C15.1761591,7.1919201 15.4971897,7.00022554 15.8828884,7.00022554 L20.8877331,7.00022554 C21.2734318,7.00022554 21.5944624,7.1919201 21.5944624,7.64228684 C21.5944624,8.09265357 21.2734318,8.28434813 20.8877331,8.28434813 L15.8828884,8.28434813 Z M16.9106484,11.1066463 C16.5249497,11.1066463 16.2039191,10.9149518 16.2039191,10.464585 C16.2039191,10.0142183 16.5249497,9.82252375 16.9106484,9.82252375 L20.9524011,9.82252375 C21.3380998,9.82252375 21.5944624,10.0142183 21.5944624,10.464585 C21.5944624,10.9126422 21.2734318,11.1066463 20.8877331,11.1066463 L16.9106484,11.1066463 Z M18.2571295,13.73725 C17.8714308,13.73725 17.5504001,13.5455554 17.5504001,13.0951887 C17.5504001,12.644822 17.8714308,12.4531274 18.2571295,12.4531274 L20.8877331,12.4531274 C21.2734318,12.4531274 21.5944624,12.644822 21.5944624,13.0951887 C21.5944624,13.5455554 21.2734318,13.73725 20.8877331,13.73725 L18.2571295,13.73725 Z" id="形状"></path>
                    </g>
                </g>
            </g>
        </g>
    </g>
</svg>