<?xml version="1.0" encoding="UTF-8"?>
<svg width="23px" height="23px" viewBox="0 0 23 23" version="1.1" xmlns="http://www.w3.org/2000/svg" xmlns:xlink="http://www.w3.org/1999/xlink">
    <!-- Generator: Sketch 52.6 (67491) - http://www.bohemiancoding.com/sketch -->
    <title>消息icon</title>
    <desc>Created with Sketch.</desc>
    <g id="移动营销客服端—app" stroke="none" stroke-width="1" fill="none" fill-rule="evenodd">
        <g id="消息—未读消息效果" transform="translate(-35.000000, -625.000000)" fill="#FDBE32" fill-rule="nonzero">
            <g id="分组-5" transform="translate(35.000000, 625.500000)">
                <g id="分组-3">
                    <g id="消-息" transform="translate(1.000000, 1.500000)">
                        <path d="M18.0915211,16.0344743 L18.2280212,16.1709745 L20.9895244,18.9324777 L10.5000122,18.9324777 C4.70400547,18.9429777 0,14.7324728 0,9.54546676 C0,4.35846073 4.70400547,0.147955828 10.5000122,0.147955828 C16.296019,0.147955828 21.0000244,4.35846073 21.0000244,9.54546676 C21.0000244,12.0654697 19.8975232,14.3439723 18.0915211,16.0344743 Z M13.8180161,11.2044687 C14.7315171,11.2044687 15.477018,10.4589678 15.477018,9.54546676 C15.477018,8.6319657 14.7315171,7.88646483 13.8180161,7.88646483 C12.904515,7.88646483 12.1590141,8.6319657 12.1590141,9.54546676 C12.1590141,10.4589678 12.904515,11.2044687 13.8180161,11.2044687 Z M7.18200836,11.2044687 C8.09550942,11.2044687 8.84101029,10.4589678 8.84101029,9.54546676 C8.84101029,8.6319657 8.09550942,7.88646483 7.18200836,7.88646483 C6.26850729,7.88646483 5.53350644,8.6319657 5.53350644,9.54546676 C5.53350644,10.4589678 6.26850729,11.2044687 7.18200836,11.2044687 Z" id="形状"></path>
                    </g>
                </g>
            </g>
        </g>
    </g>
</svg>