<?xml version="1.0" encoding="UTF-8"?>
<svg width="24px" height="24px" viewBox="0 0 24 24" version="1.1" xmlns="http://www.w3.org/2000/svg" xmlns:xlink="http://www.w3.org/1999/xlink">
    <!-- Generator: Sketch 52.6 (67491) - http://www.bohemiancoding.com/sketch -->
    <title>账号</title>
    <desc>Created with Sketch.</desc>
    <g id="移动营销客服端—app" stroke="none" stroke-width="1" fill="none" fill-rule="evenodd">
        <g id="我的" transform="translate(-20.000000, -320.000000)" fill="#C3C6D6" fill-rule="nonzero">
            <g id="账号" transform="translate(20.000000, 320.000000)">
                <path d="M8.62815313,8.64761121 C8.62798691,10.5003191 10.1223086,12.0023799 11.9658248,12.0025428 C13.8093301,12.0027098 15.3039306,10.5009297 15.3040935,8.64820826 C15.3040935,8.64800661 15.3040935,8.64780496 15.3040935,8.6476033 C15.3042597,6.79489549 13.809938,5.2928347 11.9664218,5.29267187 C10.1229165,5.29250476 8.62831596,6.79428488 8.62815313,8.64700636 C8.62815311,8.64720802 8.62815311,8.64740967 8.62815313,8.64761132 Z M11.9438971,0 C5.34850293,0 0,5.34850293 0,11.9438971 C0,18.5392913 5.34850293,23.8877942 11.9438971,23.8877942 C18.5392913,23.8877942 23.8877942,18.5392913 23.8877942,11.9438971 C23.8877942,5.34850293 18.5392913,0 11.9438971,0 Z M18.6114789,18.039433 C18.6114789,18.4087756 18.3143401,18.7086906 17.9449975,18.7086906 C17.5756549,18.7086906 17.2785162,18.4087729 17.2785162,18.039433 L17.2785162,18.031102 L17.2646311,18.031102 C16.9536058,15.4734796 14.851411,13.471262 12.2576894,13.3323959 L12.2576892,13.3323959 C12.0634571,13.343497 11.8687501,13.343497 11.6745166,13.3323958 C9.08079232,13.4712462 6.97860575,15.4734687 6.66757496,18.031102 L6.65646694,18.031102 L6.65646694,18.039433 C6.65646694,18.4087756 6.35932819,18.7086906 5.98998558,18.7086906 C5.62064296,18.7086906 5.32350421,18.4087729 5.32350421,18.039433 L5.32350421,18.031102 L5.32350421,18.028325 L5.31795019,17.9755618 C5.31795019,17.8978057 5.33183523,17.8228265 5.35405131,17.7534013 C5.67896057,15.3957222 7.222977,13.4323773 9.32795067,12.5215111 C8.09773583,11.6745228 7.2896284,10.2554723 7.2896284,8.64482077 C7.2896284,6.05109645 9.38071545,3.94890988 11.9633402,3.94890988 C14.5459569,3.94890988 16.6370521,6.05110459 16.6370521,8.64482077 C16.6370521,10.2554859 15.8317209,11.6745282 14.6015061,12.5215111 C16.7286923,13.4407006 18.2838056,15.4373739 18.5865049,17.8283841 C18.594836,17.8728161 18.60039,17.9172484 18.603167,17.9644574 C18.605944,17.9866735 18.608721,18.0061126 18.608721,18.0283285 L18.611498,18.0394365 L18.6114789,18.039433 Z" id="形状"></path>
            </g>
        </g>
    </g>
</svg>