<?xml version="1.0" encoding="UTF-8"?>
<svg width="78px" height="79px" viewBox="0 0 78 79" version="1.1" xmlns="http://www.w3.org/2000/svg" xmlns:xlink="http://www.w3.org/1999/xlink">
    <!-- Generator: Sketch 52.6 (67491) - http://www.bohemiancoding.com/sketch -->
    <title>我的—默认头像</title>
    <desc>Created with Sketch.</desc>
    <g id="移动营销客服端—app" stroke="none" stroke-width="1" fill="none" fill-rule="evenodd">
        <g id="我的—默认头像" transform="translate(-149.000000, -109.000000)">
            <g transform="translate(149.000000, 108.500000)" id="分组">
                <g>
                    <path d="M0,39.9619512 L4.45976426e-13,39.9619571 C3.25231861e-06,61.4800644 17.4608789,78.9239083 39,78.9239083 C60.5391211,78.9239051 78,61.4800644 78,39.9619571 C78,18.4438498 60.5391211,1.00000588 39,1.00000588 C17.4608789,1.00000588 4.50306459e-13,18.4438498 4.50306459e-13,39.9619571 L0,39.9619512 Z" id="路径" fill="#C3C6D6"></path>
                    <path d="M37.6737105,1.00008454 C38.1503774,0.956793479 38.5233621,1.00008454 39.0000229,1.00008454 C60.5367064,1.00008454 78.0000229,18.4463636 78.0000229,39.9620358 C78.0000229,61.477708 60.5367064,78.923987 39.0000229,78.923987 C38.523356,78.923987 38.1503713,78.8806959 37.6737105,78.8374049 L37.6737105,1.00008454 Z" id="路径" fill="#DCDEEA"></path>
                    <path d="M11.4400254,67.5383376 C16.7266887,56.1960722 27.2566582,48.4469815 39.3466582,48.4469815 C51.263291,48.4469815 61.6633418,55.936336 67.0366582,67.0188195 C59.9299898,74.3782983 50.0066836,78.9238263 39,78.9238263 C28.2533672,78.9238263 18.5033672,74.5514279 11.4400254,67.5382615 L11.4400254,67.5383376 Z" id="路径" fill="#EBEFF5"></path>
                    <path d="M24.7866328,33.2518205 L24.7866328,33.2518225 C24.7866339,40.4962494 30.6651363,46.3689873 37.9166074,46.3689873 C45.168109,46.3689863 51.046582,40.496219 51.046582,33.2518225 C51.046582,26.0073955 45.1680785,20.1346576 37.9166074,20.1346576 C30.6651059,20.1346576 24.7866328,26.007426 24.7866328,33.2518225 L24.7866328,33.2518205 Z" id="路径" fill="#EBEFF5"></path>
                    <path d="M37.6999746,46.325762 L37.6999746,20.1346556 L37.9166417,20.1346556 C45.153305,20.1346556 51.0466163,26.0222402 51.0466163,33.2518205 C51.0466163,40.4814236 45.1532821,46.3689854 37.9166417,46.3689854 C37.8733084,46.3256943 37.7866414,46.3256943 37.6999746,46.3256943 L37.6999746,46.325762 Z" id="路径" fill="#FFFFFF"></path>
                    <path d="M37.6705898,48.5 C38.2339235,48.4567089 38.8499645,48.4902894 39.4133012,48.4902894 C51.329934,48.4902894 61.7299848,55.979644 67.1033012,67.0621275 C59.9966328,74.3783144 50.0733266,78.9239109 39.066643,78.9239109 L37.6705974,78.8903304 L37.6705898,48.5 Z" id="路径" fill="#FFFFFF"></path>
                </g>
            </g>
        </g>
    </g>
</svg>