<?xml version="1.0" encoding="UTF-8"?>
<svg width="12px" height="18px" viewBox="0 0 12 18" version="1.1" xmlns="http://www.w3.org/2000/svg" xmlns:xlink="http://www.w3.org/1999/xlink">
    <!-- Generator: Sketch 52.6 (67491) - http://www.bohemiancoding.com/sketch -->
    <title>更多icon</title>
    <desc>Created with Sketch.</desc>
    <g id="移动营销客服端—app" stroke="none" stroke-width="1" fill="none" fill-rule="evenodd">
        <g id="聊天详情——图片" transform="translate(-347.000000, -33.000000)" fill="#FFFFFF" fill-rule="nonzero">
            <g id="更多" transform="translate(353.000000, 42.000000) rotate(90.000000) translate(-353.000000, -42.000000) translate(344.000000, 36.000000)">
                <path d="M0.50109652,5.75060029 C0.467795782,6.68352346 1.19708412,7.46680266 2.13000732,7.50010186 C3.06293052,7.5334026 3.84620972,6.80411426 3.87950892,5.87119106 C3.88094332,5.8310063 3.88094332,5.79078304 3.87950892,5.75059828 L3.87950893,5.75059812 C3.91280967,4.81767492 3.18352133,4.03439572 2.25059813,4.00109652 C1.31767493,3.96779578 0.53439573,4.69708412 0.50109653,5.63000732 C0.499662134,5.67019208 0.499662136,5.71041534 0.501096541,5.7506001 L0.50109652,5.75060029 Z M7.34699052,5.75060029 C7.31368978,6.68352346 8.04297812,7.46680266 8.97590132,7.50010186 C9.90882452,7.5334026 10.6921037,6.80411426 10.7254029,5.87119106 C10.7268373,5.8310063 10.7268373,5.79078304 10.7254029,5.75059828 L10.7254029,5.75059812 C10.7587037,4.81767492 10.0294153,4.03439572 9.09649213,4.00109652 C8.16356893,3.96779578 7.38028973,4.69708412 7.34699053,5.63000732 C7.34555613,5.67019208 7.34555614,5.71041534 7.34699054,5.7506001 L7.34699052,5.75060029 Z M14.2128165,5.75060029 C14.1795158,6.68352346 14.9088041,7.46680266 15.8417273,7.50010186 C16.7746505,7.5334026 17.5579297,6.80411426 17.5912289,5.87119106 C17.5926633,5.8310063 17.5926633,5.79078304 17.5912289,5.75059828 L17.5912289,5.75059812 C17.6245297,4.81767492 16.8952413,4.03439572 15.9623181,4.00109652 C15.0293949,3.96779578 14.2461157,4.69708412 14.2128165,5.63000732 C14.2113821,5.67019208 14.2113821,5.71041534 14.2128165,5.7506001 L14.2128165,5.75060029 Z" id="形状"></path>
            </g>
        </g>
    </g>
</svg>