<svg xmlns="http://www.w3.org/2000/svg" xmlns:xlink="http://www.w3.org/1999/xlink" width="29px" height="32px" viewBox="0 0 29 32" version="1.1">
    <!-- Generator: Sketch 52.6 (67491) - http://www.bohemiancoding.com/sketch -->
    <title>暂无内容</title>
    <desc>Created with Sketch.</desc>
    <g id="移动营销V3.3" stroke="none" stroke-width="1" fill="none" fill-rule="evenodd">
        <g id="用户管理—消息列表空态" transform="translate(-1005.000000, -508.000000)" fill="#999999" fill-rule="nonzero">
            <g id="暂无内容" transform="translate(1005.000000, 508.000000)">
                <g id="分组">
                    <path d="M27.6405057,2.62500205 L27.6405057,28.8749918 C27.6405057,29.599864 27.0365625,30.1874928 26.2915585,30.1874928 L2.70840978,30.1874928 C1.9634089,30.1874928 1.35946253,29.5998671 1.35946253,28.8749918 L1.35946253,2.62500202 C1.35946264,1.90012964 1.96340574,1.31250083 2.70840972,1.31250083 L26.2915584,1.31250083 C27.0365593,1.31250099 27.6405057,1.90012676 27.6405057,2.62500205 Z M2.70840972,-1.98181368e-07 C1.21840477,-1.34810997e-07 0.0105183508,1.17525127 0.0105183508,2.62499878 L0.0105183508,28.8749886 C0.0105185758,30.3247365 1.21840477,31.4999879 2.70840957,31.4999879 L26.2915583,31.4999879 C27.781563,31.499988 28.9894494,30.3247365 28.9894494,28.8749889 L28.9894494,2.62499917 C28.9894494,1.17525166 27.781563,1.98183387e-07 26.2915582,1.98183387e-07 L2.70840972,-1.98181368e-07 Z" id="形状"/>
                    <path d="M7.08078571,8.53123975 L13.8255059,8.53123975 C14.1980078,8.53123973 14.4999778,8.82505292 14.4999778,9.18748872 C14.4999778,9.18748873 14.4999778,9.18748874 14.4999778,9.18748875 C14.4999778,9.5499264 14.1980059,9.84373773 13.8255058,9.84373773 L7.08078568,9.84373773 C6.70828366,9.84373771 6.40631364,9.54992455 6.40631364,9.18748875 C6.40631359,8.82505117 6.70828556,8.53123985 7.08078566,8.53123985 C7.08078566,8.53123985 7.08078568,8.53123985 7.08078569,8.53123985 Z M21.9191827,22.9687295 L7.08078571,22.9687295 C6.70828369,22.9687295 6.40631367,22.6749163 6.40631367,22.3124805 C6.40631367,22.3124805 6.40631367,22.3124805 6.40631367,22.3124805 C6.40631362,21.9500429 6.70828559,21.6562316 7.08078569,21.6562316 L21.9191826,21.6562316 C22.2916846,21.6562316 22.5936546,21.9500448 22.5936546,22.3124806 C22.5936546,22.3124806 22.5936546,22.3124806 22.5936546,22.3124806 C22.5936546,22.6749183 22.2916827,22.9687296 21.9191826,22.9687296 C21.9191826,22.9687296 21.9191826,22.9687296 21.9191826,22.9687296 Z M21.9191827,16.4062397 L7.08078571,16.4062397 C6.70828369,16.4062397 6.40631367,16.1124266 6.40631367,15.7499908 C6.40631367,15.7499908 6.40631367,15.7499908 6.40631367,15.7499908 C6.40631373,15.387553 6.70828559,15.0937417 7.08078569,15.0937417 L21.9191826,15.0937417 C22.2916846,15.0937417 22.5936546,15.3875549 22.5936546,15.7499907 C22.5936546,15.7499907 22.5936546,15.7499907 22.5936546,15.7499907 C22.5936546,16.1124283 22.2916827,16.4062396 21.9191826,16.4062396 C21.9191826,16.4062396 21.9191826,16.4062396 21.9191826,16.4062396 Z" id="形状"/>
                </g>
            </g>
        </g>
    </g>
</svg>