<?xml version="1.0" encoding="UTF-8"?>
<svg width="42px" height="42px" viewBox="0 0 42 42" version="1.1" xmlns="http://www.w3.org/2000/svg" xmlns:xlink="http://www.w3.org/1999/xlink">
    <!-- Generator: Sketch 52.6 (67491) - http://www.bohemiancoding.com/sketch -->
    <title>切图01</title>
    <desc>Created with Sketch.</desc>
    <g id="移动营销客服端—app" stroke="none" stroke-width="1" fill="none" fill-rule="evenodd">
        <g id="通讯录-空状态扫码同步—失败" transform="translate(-167.000000, -244.000000)" fill="#939CB8" fill-rule="nonzero">
            <path d="M179.93918,255.030349 C179.742763,254.892184 179.546827,254.75295 179.438877,254.676651 C179.788463,254.312407 180.293286,253.980236 180.244894,253.800667 C180.103125,253.277164 179.568522,253.539791 179.182087,253.519477 C179.156302,253.518214 179.130421,253.52424 179.104636,253.526232 C177.25472,253.676012 175.706475,254.574301 174.230785,255.601279 C173.685502,255.980637 173.217189,256.494612 172.781638,257.006545 C172.376345,257.483198 172.485401,257.792234 173.078067,257.851427 C173.576448,257.90158 173.569232,258.142385 173.568315,258.528498 C173.565044,260.155031 174.277204,261.391423 175.673723,262.195723 C176.984082,262.950262 178.321721,263.008239 179.658349,262.240871 C182.465289,260.628865 182.610038,256.90749 179.939192,255.030345 L179.93918,255.030349 Z M174.605238,257.56222 C174.540151,257.160604 175.055655,256.631322 175.46441,256.634333 C175.880527,256.637297 176.262971,257.047272 176.276632,257.505021 C176.292748,258.037367 176.00772,258.341397 175.497411,258.343582 C174.972239,258.345915 174.684658,258.052673 174.605238,257.56222 Z M176.07122,261.416352 C175.48673,261.419317 174.86963,260.789437 174.879826,260.199499 C174.891035,259.527628 175.404279,259.07163 176.122885,259.094668 C176.801757,259.116294 177.194111,259.5512 177.18367,260.27065 C177.174241,260.951511 176.726037,261.413099 176.071216,261.416352 L176.07122,261.416352 Z M179.190803,260.530068 C178.176149,260.535025 177.318999,259.678138 177.306828,258.646155 C177.293647,257.563483 178.131701,256.60731 179.157275,256.634575 C180.314897,256.665435 181.051931,257.418027 181.127843,258.647223 C181.181481,259.513096 180.167359,260.583182 179.190807,260.530068 L179.190803,260.530068 Z M198.247741,264.397174 C198.135461,264.473862 197.909988,264.47741 197.77991,264.417731 C196.80403,263.971211 196.42019,264.048433 195.691867,264.913143 L199.105857,264.913143 C199.118798,264.840197 199.13169,264.766911 199.144631,264.693722 C198.929644,264.379145 198.727744,264.067581 198.247743,264.397175 L198.247741,264.397174 Z M187.661467,267.140981 C185.904585,267.169605 184.699576,267.922196 183.727208,269.069018 C183.520064,269.312836 183.554363,269.764943 183.477346,270.121124 C183.790227,270.062952 184.112343,270.035299 184.414019,269.941019 C185.321348,269.656622 186.201834,269.217487 187.128545,269.077089 C188.359626,268.890957 189.512105,269.337915 190.584337,269.973679 C190.770748,270.084531 191.031002,270.068494 191.257244,270.110677 C191.222223,269.867783 191.26268,269.573811 191.140298,269.389672 C190.265199,268.070717 189.129465,267.159594 187.661462,267.140982 L187.661467,267.140981 Z M208.96287,248.932869 C208.96287,248.618341 208.96287,248.302986 208.944542,247.989434 C208.82139,245.883232 206.850002,244.001361 204.76172,244.000345 C199.206312,243.997866 176.880035,244.009384 171.272399,244.01439 C168.981972,244.016382 167.007412,246.045018 167.033245,248.34809 C167.042673,249.186993 167.052102,250.026332 167.05191,250.86514 C167.048157,258.679661 167.110262,266.494753 167.000485,274.307755 C166.960268,277.146915 169.430608,278.999673 171.707496,278.999673 C172.606358,278.999673 173.522633,278.989128 174.431453,278.991655 C174.777576,278.992675 175.040811,279.01678 174.945511,279.519968 C174.811152,280.227362 174.728938,280.948757 174.680591,281.668304 C174.627194,282.462446 175.085067,283.033962 175.574259,283.599841 C175.828067,283.89386 175.996919,284.273606 176.157306,284.635277 C176.249477,284.844007 176.187613,285.134574 176.304799,285.315117 C176.425449,285.500811 176.674783,285.687866 176.877884,285.700452 C177.010513,285.707985 177.304296,285.381891 177.281638,285.246447 C177.121782,284.281578 177.641952,283.935461 178.452682,283.782961 C178.624516,283.750303 178.781679,283.631383 178.941872,283.54517 C180.843166,282.522176 182.361103,281.024573 183.875802,279.515453 C184.126531,279.265123 184.524128,279.033747 184.860628,279.02422 C186.702322,278.971054 188.546752,278.967069 190.38877,279.004684 C190.731285,279.011731 191.126523,279.215406 191.396927,279.447706 C192.382716,280.293556 193.297262,281.225333 194.292768,282.058598 C195.310835,282.910964 196.416553,283.652039 197.694587,284.058366 C198.663589,284.366868 198.655362,284.34184 198.587051,285.373385 C198.574399,285.564521 198.696781,285.859511 198.845766,285.940769 C199.012165,286.031599 199.370698,286.018526 199.480477,285.897663 C199.629461,285.733595 199.627537,285.425579 199.679155,285.17671 C199.778927,284.697578 199.711626,284.063421 199.993961,283.762938 C201.143648,282.539284 201.155048,281.14004 200.795554,279.668485 C200.648542,279.066451 200.859535,279.000257 201.360944,279.000257 C202.413121,279.000257 203.396264,279.007255 204.473019,279.007255 C206.89939,279.007255 209.026545,276.766682 208.99975,274.34396 C208.906231,265.874674 208.963766,257.403394 208.962804,248.932873 L208.96287,248.932869 Z M179.504879,281.98993 C178.962581,282.406903 178.2991,282.702914 177.648034,282.927681 C176.593934,283.291925 175.762324,282.677254 175.663997,281.550017 C175.650624,281.394503 175.662025,281.236462 175.662025,281.079926 C175.670251,279.670624 176.424891,278.616528 177.322743,277.657781 C178.446066,276.457697 179.878135,275.700631 181.366968,275.100539 C182.705181,274.560757 184.103674,274.171926 185.481766,273.736434 C185.692807,273.669709 185.940649,273.684774 186.166604,273.709365 C186.613028,273.758012 186.749166,274.03094 186.558235,274.427307 C186.332281,274.896377 186.126628,275.392565 185.812495,275.79846 C183.991923,278.151393 181.851925,280.185811 179.504874,281.989915 L179.504879,281.98993 Z M185.725621,277.568945 C186.432305,276.503281 187.032717,275.597705 187.644045,274.676619 C188.279428,275.611796 188.884894,276.502797 189.609127,277.568945 L185.725621,277.568945 Z M199.821743,282.21523 C199.458494,283.024972 198.76769,283.29338 197.915974,283.015982 C196.554238,282.572426 195.444285,281.724097 194.408561,280.781288 C193.103204,279.592768 191.80795,278.386705 190.591781,277.107357 C189.919259,276.399963 189.360602,275.562661 188.855104,274.720259 C188.434945,274.020444 188.734838,273.632629 189.567697,273.593948 C190.51428,273.850789 191.472742,274.069579 192.404845,274.372056 C193.983107,274.884816 195.532843,275.488356 196.90305,276.45313 C198.188635,277.358226 199.311431,278.423354 199.801825,280.001679 C200.030329,280.736632 200.153769,281.474254 199.821741,282.215234 L199.821743,282.21523 Z M207.663973,274.358013 C207.66176,275.818488 207.041964,276.899117 205.657615,277.39137 C205.111275,277.586055 204.488062,277.613124 203.89881,277.61915 C202.635401,277.631689 201.370022,277.603113 200.107623,277.539838 C199.807874,277.524772 199.447559,277.380824 199.234546,277.171561 C196.678914,274.665106 193.500451,273.49063 190.101129,272.818759 C189.354716,272.671264 188.544177,272.642153 187.891428,273.267272 C187.800507,273.354555 187.462322,273.325493 187.355044,273.224603 C186.740684,272.644196 185.97589,272.66723 185.290093,272.82532 C182.106966,273.560321 179.02243,274.572719 176.705193,277.066246 C176.019152,277.804747 175.277407,277.674597 174.525076,277.674597 C173.441778,277.674597 172.542436,277.657296 171.46019,277.657296 C169.876922,277.657296 168.364184,276.300627 168.36173,274.49802 C168.355283,270.171804 168.359757,265.845655 168.359757,261.519377 C168.358314,261.519377 168.394538,252.868532 168.336426,248.543869 C168.313816,246.870581 169.782348,245.403642 171.251654,245.403642 C172.739623,245.403642 203.573049,245.405197 204.608594,245.421964 C206.398426,245.451317 207.660877,246.719391 207.668765,248.556938 C207.688537,253.119633 207.670641,270.320732 207.664002,274.357976 L207.663973,274.358013 Z M176.844466,264.017139 C176.663732,264.067049 176.522204,264.262219 176.362779,264.390665 C176.536826,264.461375 176.714578,264.599394 176.884731,264.590063 C177.446369,264.559738 178.005073,264.475954 178.565268,264.412728 C178.566808,264.426725 178.568251,264.440818 178.570031,264.455057 C178.647241,264.459577 178.725461,264.475371 178.80094,264.466332 C178.975757,264.445532 179.149083,264.412728 179.323131,264.384882 C179.166931,264.27121 179.010779,264.157344 178.854819,264.04343 C178.192353,263.561872 177.510688,263.832319 176.844466,264.017138 L176.844466,264.017139 Z M201.573539,256.196823 C200.362857,255.139227 198.955417,254.425317 197.436661,253.977293 C196.576573,253.723416 195.661788,253.639876 194.764853,253.545546 C194.561701,253.524212 194.33007,253.776582 194.111286,253.903035 C194.305682,254.064819 194.477806,254.278748 194.699814,254.375119 C194.988787,254.500016 195.317545,254.531168 195.628932,254.602899 C195.628932,254.674144 195.628932,254.74534 195.628932,254.816634 C195.398552,254.979147 195.17053,255.145206 194.937649,255.303782 C193.307718,256.413328 192.63255,258.655654 193.39638,260.42668 C194.416228,262.79123 196.528852,263.652145 198.824718,262.843423 C200.784897,262.152551 201.783145,260.678518 201.572533,258.309983 C201.54367,257.983403 201.511919,257.791244 201.913749,257.6853 C202.497708,257.531244 202.550675,257.29525 202.172752,256.806837 C201.999186,256.582702 201.787663,256.384033 201.573543,256.196834 L201.573539,256.196823 Z M194.203435,257.749099 C194.224554,257.35001 194.689401,256.898727 195.087194,256.891195 C195.569939,256.882156 195.971238,257.290041 195.970952,257.789196 C195.970952,258.321589 195.624588,258.660416 195.08128,258.65969 C194.63678,258.659252 194.180349,258.185614 194.20344,257.749104 L194.203435,257.749099 Z M195.664514,261.785864 C195.084213,261.776825 194.55033,261.16167 194.551388,260.502969 C194.552398,259.863317 195.122936,259.299921 195.74894,259.320476 C196.314621,259.338797 196.85124,259.921052 196.854705,260.520028 C196.858938,261.236464 196.332753,261.795633 195.664514,261.785869 L195.664514,261.785864 Z M198.730937,260.821043 C197.770454,260.791203 196.954043,259.847716 196.977905,258.795615 C197.002199,257.733498 197.975626,256.808869 199.022458,256.853045 C199.96976,256.893139 200.884837,257.922742 200.86718,258.928581 C200.847504,260.048239 199.932961,260.858466 198.730933,260.821047 L198.730937,260.821043 Z" id="切图01"></path>
        </g>
    </g>
</svg>