<?xml version="1.0" encoding="UTF-8"?>
<svg width="21px" height="21px" viewBox="0 0 21 21" version="1.1" xmlns="http://www.w3.org/2000/svg" xmlns:xlink="http://www.w3.org/1999/xlink">
    <!-- Generator: Sketch 52.6 (67491) - http://www.bohemiancoding.com/sketch -->
    <title>登录密码icon</title>
    <desc>Created with Sketch.</desc>
    <defs>
        <path d="M8.80950432,8.90003429 L8.80950432,7.09274109 C8.80950432,7.09274109 8.78099067,4.78444729 11.1462243,4.78444729 C11.1462243,4.78444729 13.3761493,4.71325063 13.3761493,7.06422744 L13.3761493,8.90003429 L8.80950432,8.90003429 Z M16.0889575,9.01559069 L14.6154042,9.01559069 L14.6154042,7.210177 C14.6154042,7.210177 14.9389745,3.60185391 11,3.60185391 C11,3.60185391 7.42682319,3.60185391 7.42682319,7.2312475 L7.42682319,9.01559069 L5.91104252,9.01559069 C5.5016358,9.01559069 5.16666667,9.35055982 5.16666667,9.75996654 L5.16666667,17.2556241 C5.16666667,17.6650309 5.5016358,18 5.91104252,18 L16.0889575,18 C16.4983642,18 16.8333333,17.6650309 16.8333333,17.2556241 L16.8333333,9.75996654 C16.8333333,9.35055982 16.4983642,9.01559069 16.0889575,9.01559069 L16.0889575,9.01559069 Z" id="path-1"></path>
    </defs>
    <g id="移动营销客服端—app" stroke="none" stroke-width="1" fill="none" fill-rule="evenodd">
        <g id="登录页" transform="translate(-35.000000, -384.000000)">
            <g id="分组-3" transform="translate(34.000000, 384.000000)">
                <g id="login/ic_password" transform="translate(0.500000, 0.000000)">
                    <g>
                        <rect id="Rectangle-3" x="1" y="0" width="21" height="21"></rect>
                        <g id="Page-1">
                            <use fill="#FFFFFF" xlink:href="#path-1"></use>
                            <use fill="#B6BACD" xlink:href="#path-1"></use>
                        </g>
                    </g>
                </g>
            </g>
        </g>
    </g>
</svg>