<?xml version="1.0" encoding="UTF-8"?>
<svg width="42px" height="42px" viewBox="0 0 42 42" version="1.1" xmlns="http://www.w3.org/2000/svg" xmlns:xlink="http://www.w3.org/1999/xlink">
    <!-- Generator: Sketch 52.6 (67491) - http://www.bohemiancoding.com/sketch -->
    <title>默认头像icon</title>
    <desc>Created with Sketch.</desc>
    <g id="移动营销客服端—app" stroke="none" stroke-width="1" fill="none" fill-rule="evenodd">
        <g id="消息—未读消息效果" transform="translate(-20.000000, -262.000000)">
            <g id="默认头像icon" transform="translate(20.000000, 262.000000)">
                <rect id="矩形" fill="#38B549" x="0" y="0" width="42" height="42" rx="2"></rect>
                <path d="M23.6874093,31.9532057 L19.1639443,31.9532057 C14.9145856,31.9532057 11.55,31.9532057 11.55,29.8035392 L11.55,29.3562143 C11.55,25.2307979 14.9644524,21.8758475 19.1639443,21.8758475 L23.6874629,21.8758475 C27.8869548,21.8758475 31.3014072,25.2308248 31.3014072,29.3562143 L31.3014072,29.8035392 C31.3014072,31.9532057 27.7748485,31.9532057 23.6874629,31.9532057 L23.6874361,31.9532057 L23.6874093,31.9532057 Z M21.2076236,21.3042582 C17.8803979,21.3042582 15.1762654,18.6451347 15.1762654,15.3771425 C15.1762654,12.1091235 17.8803979,9.45 21.2075968,9.45 C24.5348225,9.45 27.2389282,12.1091235 27.2389282,15.3771157 C27.2389282,18.6451347 24.5347957,21.3042314 21.2075968,21.3042314 L21.2076236,21.3042582 Z" id="形状" fill="#FFFFFF" fill-rule="nonzero"></path>
            </g>
        </g>
    </g>
</svg>