<?xml version="1.0" encoding="UTF-8"?>
<svg width="23px" height="23px" viewBox="0 0 23 23" version="1.1" xmlns="http://www.w3.org/2000/svg" xmlns:xlink="http://www.w3.org/1999/xlink">
    <!-- Generator: Sketch 52.6 (67491) - http://www.bohemiancoding.com/sketch -->
    <title>分组</title>
    <desc>Created with Sketch.</desc>
    <g id="移动营销客服端—app" stroke="none" stroke-width="1" fill="none" fill-rule="evenodd">
        <g id="聊天详情——图片" transform="translate(-70.000000, -841.000000)" fill="#959CB6" fill-rule="nonzero">
            <g id="图片" transform="translate(70.000000, 841.500000)">
                <g id="分组">
                    <path d="M18.9635711,1.32981024 L3.78267213,1.32981024 C2.24921676,1.32981024 1,2.57663843 1,4.11248236 L1,18.311844 C1,19.8452994 2.24921676,21.0945161 3.78267213,21.0945161 L18.9635711,21.0945161 C20.4970265,21.0945161 21.7462433,19.8452994 21.7462433,18.311844 L21.7462433,4.11248236 C21.7462433,2.57663843 20.4970265,1.32981024 18.9635711,1.32981024 Z M3.78267213,2.39988501 L19.0979287,2.32821399 C20.0414098,2.32821399 20.8105261,3.09733023 20.8105261,4.04081134 L20.8105261,11.3356926 C16.4394617,8.50524927 11.031951,11.204336 7.9220462,13.8508603 C5.28746478,16.0961064 2.75797999,14.5172684 2.07007477,14.0013395 L2.07007477,4.11248236 C2.07007477,3.16900126 2.83919102,2.39988501 3.78267213,2.39988501 Z M3.78267213,20.0244413 C2.83919102,20.0244413 2.07007477,19.2553251 2.07007477,18.311844 L2.07007477,15.2624991 C2.76036855,15.6518343 3.80416916,16.0889408 5.02233464,16.0889408 C6.1234607,16.0889408 7.36551177,15.7330453 8.61711709,14.6677477 C11.612371,12.1167659 16.8726251,9.54667556 20.7826975,12.7354028 L20.7826975,18.3142326 C20.7826975,19.2553251 20.0135812,20.0244413 19.0701001,20.0244413 L3.78267213,20.0244413 Z" id="形状"></path>
                    <path d="M6.35992811,11.2377759 C7.5303224,11.2377759 8.48335774,10.2847405 8.48335774,9.11434624 C8.48335774,7.94395196 7.5303224,6.99091661 6.35992811,6.99091661 C5.18953383,6.99091661 4.23649848,7.94395196 4.23649848,9.11434624 C4.23649848,10.2847405 5.18714527,11.2377759 6.35992811,11.2377759 Z M6.35992811,8.06099138 C6.94034813,8.06099138 7.41328297,8.53392622 7.41328297,9.11434624 C7.41328297,9.69476626 6.94034813,10.1677011 6.35992811,10.1677011 C5.77950809,10.1677011 5.30657326,9.69476626 5.30657326,9.11434624 C5.30657326,8.53392622 5.77711953,8.06099138 6.35992811,8.06099138 Z" id="形状"></path>
                </g>
            </g>
        </g>
    </g>
</svg>