<?xml version="1.0" encoding="UTF-8"?>
<svg width="26px" height="31px" viewBox="0 0 26 31" version="1.1" xmlns="http://www.w3.org/2000/svg" xmlns:xlink="http://www.w3.org/1999/xlink">
    <!-- Generator: Sketch 52.6 (67491) - http://www.bohemiancoding.com/sketch -->
    <title>红包</title>
    <desc>Created with Sketch.</desc>
    <g id="移动营销V3.3" stroke="none" stroke-width="1" fill="none" fill-rule="evenodd">
        <g id="pc客服版本-群资料" transform="translate(-799.000000, -298.000000)">
            <g id="分组-68" transform="translate(360.000000, 84.000000)">
                <g id="分组-48">
                    <g id="分组-50">
                        <g id="分组-49">
                            <g id="分组-46" transform="translate(386.000000, 17.000000)">
                                <g id="分组-65" transform="translate(111.000000, 270.000000) scale(-1, 1) translate(-111.000000, -270.000000) translate(0.000000, 186.000000)">
                                    <g id="红包">
                                        <g id="分组-45" transform="translate(16.000000, 11.000000)">
                                            <g id="红包" transform="translate(127.000000, 0.000000)">
                                                <g id="分组" transform="translate(0.000000, 0.500000)">
                                                    <path d="M23.7416791,29.9012296 L2.1006445,29.9012296 C0.965264305,29.9012296 0.0363168749,28.9727862 0.0363168749,27.8380219 L0.0363168749,8.58141602 L2.85756463,8.58141602 L22.984759,8.23754806 L25.8060067,8.23754806 L25.8060067,27.8208285 C25.8060067,28.9727862 24.8770593,29.9012296 23.7416791,29.9012296 Z" id="路径" fill-opacity="0.677960824" fill="#FFAD3E"></path>
                                                    <path d="M17.3766689,14.2552374 C17.3766689,14.2552374 16.5681406,17.6251434 12.8695536,17.6251434 C9.17096661,17.6251434 7.60551816,14.152077 7.60551816,14.152077 C4.64664857,13.6018883 2.99518647,12.639058 0.913656115,11.4183267 L0.0363168749,10.9025248 L0.0363168749,2.56372669 C0.0363168749,1.42896242 0.965264305,0.500518922 2.1006445,0.500518922 L23.7416791,0.500518922 C24.8770593,0.500518922 25.8060067,1.42896242 25.8060067,2.56372669 L25.8060067,10.52427 L25.152303,10.9369116 C25.0146811,11.0228785 24.8598565,11.1260389 24.7222347,11.2120059 C22.5202852,12.6218646 20.7828095,13.7394354 17.3766689,14.2552374 Z" id="路径" fill="#DB3314"></path>
                                                    <path d="M12.9211618,19.3272898 C9.66984578,19.3272898 7.02062533,16.6795065 7.02062533,13.4299543 C7.02062533,10.180402 9.66984578,7.54981214 12.9211618,7.54981214 C16.1724778,7.54981214 18.8216982,10.1975954 18.8216982,13.4471477 C18.8216982,16.6966999 16.1724778,19.3272898 12.9211618,19.3272898 Z" id="路径" fill="#DB3314"></path>
                                                    <path d="M17.3766689,13.7566288 C17.3766689,13.7566288 16.5681406,17.1265349 12.8695536,17.1265349 C9.17096661,17.1265349 7.60551816,13.6362751 7.60551816,13.6362751 C4.64664857,13.1032797 2.99518647,12.123256 0.913656115,10.9025248 L0.0363168749,10.3867228 L0.0363168749,2.06511815 C0.0363168749,0.930353874 0.965264305,0.00191037756 2.1006445,0.00191037756 L23.7416791,0.00191037756 C24.8770593,0.00191037756 25.8060067,0.930353874 25.8060067,2.06511815 L25.8060067,10.0256615 L25.152303,10.438303 C25.0146811,10.52427 24.8598565,10.6274304 24.7222347,10.7133974 C22.5202852,12.123256 20.7828095,13.2236335 17.3766689,13.7566288 Z" id="路径" fill="#FEDD55"></path>
                                                    <path d="M12.9211618,18.5707803 C9.66984578,18.5707803 7.02062533,15.922997 7.02062533,12.6734448 C7.02062533,9.42389253 9.66984578,6.79330262 12.9211618,6.79330262 C16.1724778,6.79330262 18.8216982,9.44108593 18.8216982,12.6906382 C18.8216982,15.9401904 16.1724778,18.5707803 12.9211618,18.5707803 Z" id="路径" fill="#FFDA47"></path>
                                                    <polygon id="路径" fill="#F15328" points="16.1036669 14.9773601 16.1036669 13.6018883 13.5920683 13.6018883 13.5920683 11.951322 16.1036669 11.951322 16.1036669 10.5758502 15.4155577 10.5758502 15.7940177 9.02844437 14.3661911 9.02844437 13.9877311 10.5758502 12.0094171 10.5758502 11.5793488 9.02844437 10.1515222 9.02844437 10.5815905 10.5758502 9.75585943 10.5758502 9.75585943 11.951322 12.2158499 11.951322 12.2158499 13.6018883 9.7386567 13.6018883 9.7386567 14.9773601 12.1986471 14.9773601 12.1986471 17.0577613 13.5748655 17.0577613 13.5748655 14.9773601 16.1036669 14.9773601"></polygon>
                                                </g>
                                            </g>
                                        </g>
                                    </g>
                                </g>
                            </g>
                        </g>
                    </g>
                </g>
            </g>
        </g>
    </g>
</svg>