<?xml version="1.0" encoding="UTF-8"?>
<svg width="20px" height="20px" viewBox="0 0 20 20" version="1.1" xmlns="http://www.w3.org/2000/svg" xmlns:xlink="http://www.w3.org/1999/xlink">
    <!-- Generator: Sketch 52.6 (67491) - http://www.bohemiancoding.com/sketch -->
    <title>刷新</title>
    <desc>Created with Sketch.</desc>
    <g id="移动营销客服端—app" stroke="none" stroke-width="1" fill="none" fill-rule="evenodd">
        <g id="通讯录-空状态扫码同步—失败" transform="translate(-336.000000, -33.000000)" fill="#FFFFFF" fill-rule="nonzero">
            <g id="刷新" transform="translate(336.000000, 33.000000)">
                <path d="M10.0000128,19.625024 C4.96417686,19.625024 0.866929907,15.5277556 0.866929907,10.4919411 C0.866929907,5.45610517 4.96419835,1.35885821 10.0000128,1.35885821 C12.5110665,1.35885821 14.8506102,2.35642832 16.5891279,4.16766422 C16.7963241,4.3830883 17.5359218,5.18855349 17.7197982,5.42318462 C17.958565,5.72918263 17.9036743,6.17100932 17.5976761,6.4097762 C17.2903138,6.64854308 16.8484657,6.59226641 16.6110845,6.28765414 C16.4436862,6.07223007 15.7644574,5.33811027 15.5764667,5.14189324 C14.1041365,3.60783189 12.124117,2.76395688 10.0000188,2.76395688 C5.73946894,2.76395688 2.27201568,6.23141013 2.27201568,10.49196 C2.27201568,14.7525099 5.73946894,18.2199631 10.0000188,18.2199631 C14.2605687,18.2199631 17.7280219,14.7525099 17.7280219,10.49196 C17.7280219,10.1036381 18.0422485,9.78941154 18.4305704,9.78941154 C18.8188924,9.78941154 19.1331189,10.1036381 19.1331189,10.49196 C19.1331189,15.527796 15.0358505,19.6250429 10.000036,19.6250429 L10.0000128,19.625024 Z M17.0186225,6.97922022 L12.3889492,6.97922022 C12.0006272,6.97922022 11.6864007,6.66499368 11.6864007,6.27667175 C11.6864007,5.88834981 12.0006272,5.57412327 12.3889492,5.57412327 L16.8855052,5.57412327 L16.8855052,1.07756726 C16.8855052,0.689245325 17.1997317,0.375018788 17.5880537,0.375018788 C17.9763756,0.375018788 18.2906021,0.689245325 18.2906021,1.07756726 L18.2906021,5.70724062 C18.2905801,6.40840335 17.7197681,6.97923741 17.0186053,6.97923741 L17.0186225,6.97922022 Z" id="形状"></path>
            </g>
        </g>
    </g>
</svg>