<?xml version="1.0" encoding="UTF-8"?>
<svg width="14px" height="15px" viewBox="0 0 14 15" version="1.1" xmlns="http://www.w3.org/2000/svg" xmlns:xlink="http://www.w3.org/1999/xlink">
    <!-- Generator: Sketch 52.6 (67491) - http://www.bohemiancoding.com/sketch -->
    <title>形状</title>
    <desc>Created with Sketch.</desc>
    <g id="移动营销客服端—app" stroke="none" stroke-width="1" fill="none" fill-rule="evenodd">
        <g id="消息" transform="translate(-20.000000, -83.000000)" fill="#939CB8" fill-rule="nonzero">
            <g id="分组-2" transform="translate(0.000000, 64.000000)">
                <path d="M33.8159848,32.4159012 L30.9163033,29.4865781 C31.7651264,28.4326736 32.2767038,27.0961948 32.2767038,25.6406404 C32.2767038,22.2544522 29.5228629,19.5 26.1377876,19.5 C22.7526966,19.5 20,22.2544365 20,25.6406404 C20,29.0268444 22.7527122,31.7818452 26.1377876,31.7818452 C27.6109842,31.7818452 28.9622602,31.259452 30.021894,30.3918173 L32.9113398,33.3114375 C33.0355144,33.4373615 33.1995884,33.5005806 33.363678,33.5005806 C33.5314654,33.5007067 33.692467,33.4343397 33.8114266,33.3160115 C34.0609468,33.0687532 34.063226,32.6654152 33.8159846,32.4158934 L33.8159848,32.4159012 Z M21.2726484,25.6406561 C21.2726484,22.9568671 23.4545535,20.7732691 26.1377625,20.7732691 C28.8209715,20.7732691 31.0040052,22.9568828 31.0040052,25.6406561 C31.0040052,28.3244451 28.8209559,30.5086231 26.1377625,30.5086231 C23.4545535,30.5086231 21.2726484,28.3244451 21.2726484,25.6406561 Z" id="形状"></path>
            </g>
        </g>
    </g>
</svg>