<?xml version="1.0" encoding="UTF-8"?>
<svg width="20px" height="20px" viewBox="0 0 20 20" version="1.1" xmlns="http://www.w3.org/2000/svg" xmlns:xlink="http://www.w3.org/1999/xlink">
    <!-- Generator: Sketch 52.6 (67491) - http://www.bohemiancoding.com/sketch -->
    <title>成功icon</title>
    <desc>Created with Sketch.</desc>
    <g id="移动营销客服端—app" stroke="none" stroke-width="1" fill="none" fill-rule="evenodd">
        <g id="通讯录-空状态扫码同步—成功" transform="translate(-147.000000, -549.000000)" fill="#FFFFFF">
            <g id="分组-9" transform="translate(123.000000, 537.000000)">
                <g id="成功" transform="translate(24.000000, 12.000000)">
                    <g id="分组">
                        <g id="分组-7">
                            <g id="分组-6">
                                <g id="分组-8">
                                    <g id="成功icon">
                                        <path d="M10.0000121,1.25000052 L10.0000117,1.25000052 C14.8325173,1.2500003 18.7500219,5.16750507 18.7500219,10.0000107 C18.7500221,14.8325163 14.8325173,18.7500209 10.0000117,18.7500209 C5.16750607,18.7500211 1.25000151,14.8325163 1.25000151,10.0000107 L1.25000151,10.0000116 C1.25000078,5.16750601 5.16750607,1.25000145 10.0000117,1.25000145 C10.0000118,1.25000145 10.000012,1.25000145 10.0000121,1.25000145 L10.0000121,1.25000052 Z M10.0000121,-7.10542736e-15 L10.0000116,2.88659599e-15 C4.47715365,2.41412393e-07 -1.15463195e-13,4.47715365 -1.15463195e-13,10.0000116 C2.41412275e-07,15.5228696 4.47715365,20.0000233 10.0000116,20.0000233 C15.5228696,20.000023 20.0000233,15.5228696 20.0000233,10.0000116 L20.0000233,10.0000121 C20.0000233,4.47715408 15.5228696,4.37113794e-07 10.0000116,4.37113794e-07 L10.0000121,-7.10542736e-15 Z" id="形状" fill-rule="nonzero"></path>
                                        <path d="M15.2213334,7.0422977 C14.9783057,6.80408258 14.58936,6.80408258 14.3463323,7.04229771 L8.97132609,12.3298039 L6.13382279,9.46730053 C5.89219751,9.21531978 5.49205252,9.20692523 5.24007176,9.44855048 C4.98809099,9.69017576 4.97969645,10.0903208 5.22132169,10.3423015 C5.2213217,10.3423015 5.2213217,10.3423015 5.22132171,10.3423015 L8.12132508,13.2173049 L9.00882612,14.1048059 L15.2213333,7.92979872 C15.4664098,7.6867242 15.4680329,7.29099913 15.2249573,7.04592072 C15.2237543,7.04470778 15.2225463,7.04349979 15.2213333,7.04229677 L15.2213334,7.0422977 Z" id="路径"></path>
                                    </g>
                                </g>
                            </g>
                        </g>
                    </g>
                </g>
            </g>
        </g>
    </g>
</svg>