<?xml version="1.0" encoding="UTF-8"?>
<svg width="26px" height="27px" viewBox="0 0 26 27" version="1.1" xmlns="http://www.w3.org/2000/svg" xmlns:xlink="http://www.w3.org/1999/xlink">
    <!-- Generator: Sketch 52.6 (67491) - http://www.bohemiancoding.com/sketch -->
    <title>分组 66</title>
    <desc>Created with Sketch.</desc>
    <g id="移动营销V3.3" stroke="none" stroke-width="1" fill="none" fill-rule="evenodd">
        <g id="pc客服版本-群资料" transform="translate(-1056.000000, -572.000000)" fill="#FFFFFF">
            <g id="分组-68" transform="translate(360.000000, 84.000000)">
                <g id="分组-48">
                    <g id="分组-50">
                        <g id="分组-49">
                            <g id="分组-46" transform="translate(386.000000, 17.000000)">
                                <g id="分组-62" transform="translate(291.500000, 458.000000)">
                                    <g id="分组-60">
                                        <g id="分组-66" transform="translate(31.500000, 26.500000) scale(-1, 1) translate(-31.500000, -26.500000) translate(18.500000, 13.000000)">
                                            <path d="M22.719045,1.73809658 C23.8333317,1.73809658 24.7619034,2.66666837 24.7619034,3.78095502 L24.7619034,23.2190753 C24.7619034,24.3333619 23.8333317,25.2619337 22.719045,25.2619337 L3.28092474,25.2619337 C2.16663809,25.2619337 1.2380663,24.3333619 1.2380663,23.2190753 L1.2380663,3.78095499 C1.2380663,2.66666834 2.16663809,1.73809656 3.28092474,1.73809656 L22.719045,1.73809656 Z M22.719045,0.5 L3.28092474,0.5 C1.48568358,0.5 -3.02545452e-05,1.98571638 -3.02545452e-05,3.78095499 L-3.02545452e-05,23.2190753 C-3.02545452e-05,25.0143164 1.48568612,26.5000303 3.28092474,26.5000303 L22.719045,26.5000303 C24.5142862,26.5000303 26,25.0143139 26,23.2190753 L26,3.78095499 C25.9380953,1.98571384 24.4523786,0.5 22.719045,0.5 Z" id="形状" fill-rule="nonzero" transform="translate(12.999985, 13.500015) scale(-1, 1) translate(-12.999985, -13.500015) "></path>
                                            <path d="M11.2318496,15.8548255 C11.3764211,15.6264442 11.465993,15.4111576 11.6173743,15.2582059 C13.5921387,13.2708709 15.5758105,11.2913907 17.5573812,9.31087277 C18.124144,8.74515844 18.760572,8.6880615 19.2361937,9.15687259 C19.7097185,9.62463525 19.6610047,10.2767792 19.1041935,10.8346367 C16.7350013,13.2048816 14.3652935,15.5751265 11.9945114,17.9437816 C11.3774623,18.5603066 10.8269396,18.556115 10.2009851,17.9322578 C9.04703222,16.7809239 7.88784572,15.6348235 6.74592838,14.472496 C6.00578435,13.7192572 6.22054671,12.7570182 7.20111836,12.5637317 C7.51016716,12.5029697 7.9669298,12.6553985 8.20526269,12.874351 C9.18688278,13.7742573 10.1103596,14.7380668 11.2318346,15.8548388 L11.2318496,15.8548255 Z" id="路径" transform="translate(12.931756, 13.622536) scale(-1, 1) translate(-12.931756, -13.622536) "></path>
                                        </g>
                                    </g>
                                </g>
                            </g>
                        </g>
                    </g>
                </g>
            </g>
        </g>
    </g>
</svg>