<?xml version="1.0" encoding="UTF-8"?>
<svg width="27px" height="26px" viewBox="0 0 27 26" version="1.1" xmlns="http://www.w3.org/2000/svg" xmlns:xlink="http://www.w3.org/1999/xlink">
    <!-- Generator: Sketch 52.6 (67491) - http://www.bohemiancoding.com/sketch -->
    <title>转账</title>
    <desc>Created with Sketch.</desc>
    <g id="移动营销V3.3" stroke="none" stroke-width="1" fill="none" fill-rule="evenodd">
        <g id="pc客服版本-群资料" transform="translate(-799.000000, -392.000000)" fill="#FFFFFF" fill-rule="nonzero">
            <g id="分组-68" transform="translate(360.000000, 84.000000)">
                <g id="分组-48">
                    <g id="分组-50">
                        <g id="分组-49">
                            <g id="分组-46" transform="translate(386.000000, 17.000000)">
                                <g id="分组-65" transform="translate(111.000000, 270.000000) scale(-1, 1) translate(-111.000000, -270.000000) translate(0.000000, 186.000000)">
                                    <g id="转账" transform="translate(142.500000, 105.000000)">
                                        <path d="M22.7190753,1.23809658 C23.8333619,1.23809658 24.7619337,2.16666837 24.7619337,3.28095502 L24.7619337,22.7190753 C24.7619337,23.8333619 23.8333619,24.7619337 22.7190753,24.7619337 L3.28095499,24.7619337 C2.16666834,24.7619337 1.23809656,23.8333619 1.23809656,22.7190753 L1.23809656,3.28095499 C1.23809656,2.16666834 2.16666834,1.23809656 3.28095499,1.23809656 L22.7190753,1.23809656 Z M22.7190753,2.88658322e-15 L3.28095499,2.88658322e-15 C1.48571384,2.88658322e-15 0,1.48571638 0,3.28095499 L0,22.7190753 C0,24.5143164 1.48571638,26.0000303 3.28095499,26.0000303 L22.7190753,26.0000303 C24.5143164,26.0000303 26.0000303,24.5143139 26.0000303,22.7190753 L26.0000302,3.28095499 C25.9381255,1.48571384 24.4524089,0 22.7190752,0 Z M19.004778,9.78096255 L8.91427795,9.78096255 L11.2047562,7.4904843 C11.3904708,7.30476969 11.3904708,7.05714962 11.2047562,6.93333971 L10.6476116,6.37619511 C10.5857069,6.1904805 10.2142769,6.1904805 10.090467,6.37619511 L6.68570719,9.78095494 C6.62380249,9.84285964 6.56189754,9.90476459 6.56189754,10.0285742 C6.49999284,10.0904789 6.49999284,10.1523839 6.49999284,10.2142889 L6.49999284,11.0190507 C6.49999284,11.26667 6.68570745,11.4523854 6.93332752,11.4523854 L19.1285859,11.4523854 C19.3762052,11.4523854 19.5619205,11.2666708 19.5619205,11.0190507 L19.5619205,10.2142889 C19.4381109,9.90476408 19.2523958,9.78095417 19.0047759,9.78095417 L19.004778,9.78096255 Z M19.1285876,13.0000151 L6.9333293,13.0000151 C6.68570999,13.0000151 6.49999461,13.1857297 6.49999461,13.3095399 L6.49999461,14.1143018 C6.49999461,14.3619211 6.49999461,14.6095414 7.30475649,14.6095414 L16.8381094,14.6095414 L14.7952509,16.5904949 C14.6095363,16.7762095 14.6095363,17.0238296 14.7952509,17.1476395 L15.3523955,17.7047841 C15.5381102,17.8904987 15.7857302,17.8904987 15.9095401,17.7047841 L19.2523975,14.5476339 C19.5000169,14.4238243 19.5000169,14.2381091 19.5000169,14.1762042 L19.5000169,13.3714423 C19.4381122,13.1857277 19.2523975,13.0000126 19.1285871,13.0000126 L19.1285876,13.0000151 Z" id="形状"></path>
                                    </g>
                                </g>
                            </g>
                        </g>
                    </g>
                </g>
            </g>
        </g>
    </g>
</svg>