<?xml version="1.0" encoding="UTF-8"?>
<svg width="11px" height="11px" viewBox="0 0 11 11" version="1.1" xmlns="http://www.w3.org/2000/svg" xmlns:xlink="http://www.w3.org/1999/xlink">
    <!-- Generator: Sketch 52.6 (67491) - http://www.bohemiancoding.com/sketch -->
    <title>感叹号002</title>
    <desc>Created with Sketch.</desc>
    <g id="移动营销V3.3" stroke="none" stroke-width="1" fill="none" fill-rule="evenodd">
        <g id="pc客服版本首页" transform="translate(-900.000000, -785.000000)" fill="#F15E48" fill-rule="nonzero">
            <g id="分组-68" transform="translate(360.000000, 84.000000)">
                <g id="分组-48">
                    <g id="分组-64-copy" transform="translate(532.000000, 660.000000)">
                        <g id="分组-61" transform="translate(0.000000, 0.500000)">
                            <g id="感叹号" transform="translate(8.000000, 0.000000)">
                                <path d="M5.500007,40.5 C8.53753626,40.5 11.000014,42.9623488 11.000014,46.000007 C11.000014,49.0376652 8.53753626,51.500014 5.500007,51.500014 C2.46247774,51.500014 0,49.0375363 0,46.000007 C0,42.9624777 2.46234884,40.5 5.500007,40.5 Z M5.500007,47.8839205 C5.03999798,47.8839206 4.66708676,48.2568317 4.66708676,48.7168407 C4.66708678,49.1768497 5.03999798,49.5497609 5.50000696,49.5497609 C5.96001595,49.5497609 6.33292716,49.1768497 6.33292716,48.7168407 C6.33292716,48.2568317 5.96001595,47.8839205 5.50000696,47.8839205 C5.50000696,47.8839205 5.50000696,47.8839205 5.50000696,47.8839205 Z M5.47604684,47.2328003 C5.87228364,47.2328003 6.19349802,46.911587 6.19349802,46.5153491 L6.19349802,43.1675636 C6.19349802,42.7713267 5.87228472,42.4501123 5.47604681,42.4501123 C5.07980998,42.4501123 4.75859561,42.7713256 4.75859561,43.1675636 L4.75859561,46.5154887 C4.75859566,46.9117256 5.07980998,47.23294 5.47604681,47.23294 L5.47604684,47.2328003 Z" id="感叹号002"></path>
                            </g>
                        </g>
                    </g>
                </g>
            </g>
        </g>
    </g>
</svg>